<?xml version="1.0" encoding="utf-8"?>
<!-- Generator: Adobe Illustrator 19.0.0, SVG Export Plug-In . SVG Version: 6.00 Build 0)  -->
<svg version="1.1" id="Capa_1" xmlns="http://www.w3.org/2000/svg" xmlns:xlink="http://www.w3.org/1999/xlink" x="0px" y="0px"
	 viewBox="0 0 413.3 392.4" style="enable-background:new 0 0 413.3 392.4;" xml:space="preserve">
<style type="text/css">
	.st0{fill:#3F403E;}
	.st1{fill:#FFFFFF;}
</style>
<g id="XMLID_1_">
	<g id="XMLID_237_">
		<polygon id="XMLID_212_" class="st0" points="30.3,52.6 30.2,52.6 30.6,36.4 23.5,36.4 19.1,61.1 23.5,61.1 26.9,41.9 26.9,41.9 
			26.8,61.1 30.6,61.1 37.1,41.9 37.1,41.9 33.8,61.1 38.2,61.1 42.6,36.4 35.6,36.4 		"/>
		<polygon id="XMLID_211_" class="st0" points="49.1,45.6 49,45.6 48.3,36.4 43,36.4 45.5,51.4 43.8,61.1 48.6,61.1 50.4,51.4 
			58.2,36.4 53,36.4 		"/>
		<polygon id="XMLID_210_" class="st0" points="80.6,36.4 75.8,54 75.7,54 76.5,36.4 72.1,36.4 66.8,54 66.8,54 68.1,36.4 
			63.3,36.4 62.5,61.1 67.9,61.1 72.9,43.6 73,43.6 72,61.1 77.3,61.1 85.3,36.4 		"/>
		<path id="XMLID_207_" class="st0" d="M102.4,36.4l-8.5,21.8l0.3-1.8h-7.4l1-5.6h6.6l0.8-4.7h-6.6l0.9-4.9h7l0.8-4.7H85.6
			l-4.4,24.7h11.6h0.6h4.4l1.6-4.7h4.9l-0.1,4.7h5l-0.7-24.7H102.4z M104.4,51.9h-3.5l3.6-11h0.1L104.4,51.9z"/>
		<path id="XMLID_204_" class="st0" d="M121.2,36.4h-7.5l-4.4,24.7h4.8l1.7-9.6h2.1c4.8,0,7.1-3.1,7.9-7.5
			C126.5,40.8,126.3,36.4,121.2,36.4 M121,44c-0.3,1.7-1,3.1-2.9,3.1h-1.3l1.1-6.5h1.2C121,40.7,121.3,42.1,121,44"/>
		<path id="XMLID_201_" class="st0" d="M135.2,35.9c-6.4,0-8.1,5-9.5,12.8c-1.4,7.8-1.4,12.8,4.9,12.8c6.8,0,8.3-6,9.5-12.8
			S142.1,35.9,135.2,35.9 M135.2,48.8c-1.2,6.8-1.9,9-3.8,9c-1.9,0-1.8-2.2-0.6-9c1.2-6.8,1.9-9,3.8-9
			C136.5,39.8,136.4,42,135.2,48.8"/>
		<polygon id="XMLID_200_" class="st0" points="153.1,36.4 150.3,52.4 150.2,52.4 149.1,36.4 143.6,36.4 139.2,61.1 143.5,61.1 
			146.5,44.1 146.6,44.1 147.8,61.1 153.2,61.1 157.6,36.4 		"/>
		<path id="XMLID_199_" class="st0" d="M165.5,35.9c-5,0-7.3,3.3-8,7.3c-1.6,9.2,7.7,6.3,6.8,11.6c-0.3,1.4-1,2.9-2.7,2.9
			c-1.7,0-1.8-1.4-1.5-3.3l0.1-0.9h-4.7l-0.3,1.6c-0.9,5.1,2.1,6.4,5.6,6.4c4.4,0,7.4-2.2,8.4-7.8c1.6-8.7-7.7-6.1-6.8-11.3
			c0.3-1.8,1.2-2.7,2.4-2.7c0.7,0,1.1,0.3,1.3,0.9c0.2,0.6,0.1,1.4-0.1,2.6h4.7l0.1-0.6C171.6,38.9,170.4,35.9,165.5,35.9"/>
		<path id="XMLID_195_" class="st0" d="M181,3.2v-2V1V0.8c0-0.2-0.2-0.4-0.4-0.4h-0.4c-0.2,0-0.4,0.2-0.4,0.4v0.2l-0.8,0V0.3
			c0-0.2-0.1-0.3-0.3-0.3h-0.3c-0.2,0-0.3,0.1-0.3,0.3v0.5l-1.6-0.1c0,0-58.7-0.8-72.6-0.8C90,0,84.1,1.9,79.4,4.9
			c-4.7,3-9.2,2.9-9.2,2.9s-37.3,5-40.6,5.5c-3.3,0.5-7,0.3-5.1,4.9c1.9,4.6,1.9,16.4,1.9,16.4c5.4-0.6,6-0.1,6.1,0.8
			c0.1,0.9,0.4,1.3,0.4,1.3l41.7-21.4c0,0,3.1-1.9,4.9-0.5c1.8,1.4,0.6,4.3,0.6,4.3s-2.6,5.1-4.5,9.7c-1.9,4.6,1.4,4,1.4,4
			s3.7-0.3,7-0.6c3.2-0.3,2.7-1.6,2.9-2.7c0.2-1,0-1.3,0-1.3c-1.5,0.3-1-0.8-1-0.8s2.5-8.5,3.3-9.8c0.5-0.9,1.4-1.4,2-1.6
			c0.1,0.2,0.3,0.4,0.6,0.7c0.1,0.1,0.3,0.2,0.5,0.3c0,0,0.1,0,0.1,0c0.1,0,0.2,0,0.3,0.1c0,0,0.1,0,0.1,0l0,0
			c0.6,0.1,1.6,0.2,3,0.1c5.1-0.4,4.6-3.6,5-4.9c0.5-1.3,7.3-1.2,7.3-1.2h16.3c0.4,2.1,1.9,1.7,1.9,1.7s22.2-0.7,25.3-0.7
			c3.1,0,3.1-1.5,3.1-1.5h7.3l0.5-0.5h6.8l0.4,0.8c0,0,4.8-0.1,5.8,0c1,0.1,0.2-0.9,0.8-0.7c0.6,0.2,1.6-0.2,1.1-1.6
			c-0.4-1.4,0.3-3,2-3.7C181.2,4.4,181,3.2,181,3.2 M98.6,15.8c-0.7,0.5-2.6,1.5-5.2,0.9c-0.9-0.3-1.1-0.9-1.5-1.4
			c-0.3-0.4-0.1-0.9,0.1-1.2c0.3,1,1.5,1.9,1.5,1.9l0.5-0.1c-1.4-0.6-1.3-2.1-1.2-2.7c0.6-0.6,2.5-2,4.9-1.1
			C100.7,13.2,99.3,15.3,98.6,15.8 M168.9,5.8h-8.7l-0.3,0.7h-4.9L154.5,5h15.3L168.9,5.8z"/>
		<path id="XMLID_194_" class="st1" d="M187.8,0.8c-1.2,0-2.1,0.9-2.1,2.1c0,1.2,0.9,2.1,2.1,2.1c1.2,0,2.1-0.9,2.1-2.1
			C189.9,1.8,189,0.8,187.8,0.8"/>
		<path id="XMLID_193_" class="st1" d="M200.9,0.8c-1.2,0-2.1,0.9-2.1,2.1c0,1.2,0.9,2.1,2.1,2.1c1.2,0,2.1-0.9,2.1-2.1
			C203,1.8,202.1,0.8,200.9,0.8"/>
		<path id="XMLID_192_" class="st1" d="M214,0.8c-1.2,0-2.1,0.9-2.1,2.1c0,1.2,0.9,2.1,2.1,2.1c1.2,0,2.1-0.9,2.1-2.1
			C216.1,1.8,215.1,0.8,214,0.8"/>
		<path id="XMLID_191_" class="st1" d="M227.1,0.8c-1.2,0-2.1,0.9-2.1,2.1c0,1.2,0.9,2.1,2.1,2.1c1.2,0,2.1-0.9,2.1-2.1
			C229.2,1.8,228.2,0.8,227.1,0.8"/>
		<path id="XMLID_190_" class="st1" d="M240.1,0.8c-1.2,0-2.1,0.9-2.1,2.1c0,1.2,0.9,2.1,2.1,2.1c1.2,0,2.1-0.9,2.1-2.1
			C242.2,1.8,241.3,0.8,240.1,0.8"/>
		<path id="XMLID_189_" class="st1" d="M253.2,0.8c-1.2,0-2.1,0.9-2.1,2.1c0,1.2,0.9,2.1,2.1,2.1c1.2,0,2.1-0.9,2.1-2.1
			C255.3,1.8,254.4,0.8,253.2,0.8"/>
		<path id="XMLID_188_" class="st1" d="M266.3,0.8c-1.2,0-2.1,0.9-2.1,2.1c0,1.2,0.9,2.1,2.1,2.1c1.2,0,2.1-0.9,2.1-2.1
			C268.4,1.8,267.4,0.8,266.3,0.8"/>
		<path id="XMLID_187_" class="st1" d="M279.4,0.8c-1.2,0-2.1,0.9-2.1,2.1c0,1.2,0.9,2.1,2.1,2.1c1.2,0,2.1-0.9,2.1-2.1
			C281.5,1.8,280.5,0.8,279.4,0.8"/>
		<path id="XMLID_186_" class="st1" d="M292.4,0.8c-1.2,0-2.1,0.9-2.1,2.1c0,1.2,0.9,2.1,2.1,2.1c1.2,0,2.1-0.9,2.1-2.1
			C294.5,1.8,293.6,0.8,292.4,0.8"/>
		<path id="XMLID_185_" class="st1" d="M305.5,0.8c-1.2,0-2.1,0.9-2.1,2.1c0,1.2,0.9,2.1,2.1,2.1c1.2,0,2.1-0.9,2.1-2.1
			C307.6,1.8,306.7,0.8,305.5,0.8"/>
		<path id="XMLID_184_" class="st1" d="M318.6,0.8c-1.2,0-2.1,0.9-2.1,2.1c0,1.2,0.9,2.1,2.1,2.1c1.2,0,2.1-0.9,2.1-2.1
			C320.7,1.8,319.7,0.8,318.6,0.8"/>
		<path id="XMLID_183_" class="st1" d="M331.7,0.8c-1.2,0-2.1,0.9-2.1,2.1c0,1.2,0.9,2.1,2.1,2.1c1.2,0,2.1-0.9,2.1-2.1
			C333.8,1.8,332.8,0.8,331.7,0.8"/>
		<path id="XMLID_182_" class="st1" d="M344.7,0.8c-1.2,0-2.1,0.9-2.1,2.1c0,1.2,0.9,2.1,2.1,2.1c1.2,0,2.1-0.9,2.1-2.1
			C346.8,1.8,345.9,0.8,344.7,0.8"/>
		<path id="XMLID_181_" class="st1" d="M357.8,0.8c-1.2,0-2.1,0.9-2.1,2.1c0,1.2,0.9,2.1,2.1,2.1c1.2,0,2.1-0.9,2.1-2.1
			C359.9,1.8,359,0.8,357.8,0.8"/>
		<path id="XMLID_180_" class="st1" d="M370.9,0.8c-1.2,0-2.1,0.9-2.1,2.1c0,1.2,0.9,2.1,2.1,2.1c1.2,0,2.1-0.9,2.1-2.1
			C373,1.8,372.1,0.8,370.9,0.8"/>
		<path id="XMLID_179_" class="st1" d="M384,0.8c-1.2,0-2.1,0.9-2.1,2.1c0,1.2,0.9,2.1,2.1,2.1c1.2,0,2.1-0.9,2.1-2.1
			C386.1,1.8,385.1,0.8,384,0.8"/>
		<path id="XMLID_178_" class="st1" d="M397,0.8c-1.2,0-2.1,0.9-2.1,2.1c0,1.2,0.9,2.1,2.1,2.1c1.2,0,2.1-0.9,2.1-2.1
			C399.2,1.8,398.2,0.8,397,0.8"/>
		<path id="XMLID_175_" class="st1" d="M188.8,62.1c-8.6,0-12.5-6.8-12.5-14.3s3.9-14.3,12.5-14.3c8.6,0,12.5,6.7,12.5,14.3
			S197.5,62.1,188.8,62.1 M188.8,41.1c-3.3,0-3.8,3.8-3.8,6.7c0,2.9,0.4,6.8,3.8,6.8c3.3,0,3.8-3.9,3.8-6.8
			C192.6,44.9,192.2,41.1,188.8,41.1"/>
		<path id="XMLID_174_" class="st1" d="M204.6,40.6H201v-6.4h3.6c-0.1-2.7,0.1-5.7,1.8-7.7c1.9-2.3,4.1-2.6,7.7-2.6
			c1.3,0,2.6,0.2,3.9,0.2v7.1c-0.7-0.1-1.4-0.4-2.1-0.4c-2.1,0-2.8,0.7-2.7,3.3h4.6v6.4h-4.4v20.8h-8.8V40.6z"/>
		<path id="XMLID_173_" class="st1" d="M251,37.9c-0.2-1.4-1.1-5.5-5.1-5.5c-4.6,0-6,5.2-6,10.3c0,5,1.5,10.3,6,10.3
			c3.3,0,4.6-2.7,5.1-6.2h9.6c0,7.6-5.2,15.6-14.4,15.6c-10.2,0-16-8.5-16-19.6c0-11.8,6.3-19.6,16-19.6c8.7,0.1,13.5,5.5,14.3,14.8
			H251z"/>
		<polygon id="XMLID_172_" class="st1" points="262.7,24 272.4,24 272.4,37 281.5,37 281.5,24 291.3,24 291.3,61.4 281.5,61.4 
			281.5,46.6 272.4,46.6 272.4,61.4 262.7,61.4 		"/>
		<path id="XMLID_169_" class="st1" d="M309.3,23.1c9.6,0,16,8.2,16,19.6c0,11.4-6.4,19.6-16,19.6c-9.6,0-16-8.2-16-19.6
			C293.3,31.3,299.7,23.1,309.3,23.1 M309.3,53c2.5,0,6.3-1.9,6.3-10.3c0-8.3-3.8-10.3-6.3-10.3c-2.5,0-6.3,1.9-6.3,10.3
			C303,51.1,306.8,53,309.3,53"/>
		<rect id="XMLID_168_" x="327.4" y="24" class="st1" width="9.7" height="37.5"/>
		<path id="XMLID_167_" class="st1" d="M360,37.9c-0.2-1.4-1.1-5.5-5.1-5.5c-4.6,0-6,5.2-6,10.3c0,5,1.5,10.3,6,10.3
			c3.3,0,4.6-2.7,5.1-6.2h9.6c0,7.6-5.2,15.6-14.4,15.6c-10.2,0-16-8.5-16-19.6c0-11.8,6.3-19.6,16-19.6c8.7,0.1,13.5,5.5,14.3,14.8
			H360z"/>
		<polygon id="XMLID_166_" class="st1" points="371.6,24 397.8,24 397.8,33.6 381.4,33.6 381.4,38.3 396.3,38.3 396.3,47.2 
			381.4,47.2 381.4,51.8 398.3,51.8 398.3,61.4 371.6,61.4 		"/>
	</g>
	<g id="XMLID_238_">
		<path id="XMLID_154_" class="st1" d="M161.9,335.4h105.4v-16.3H159.1v6.8v9.5v25.3v1.1v1.1h8.5v-2.3h-5.8V335.4z M245.7,322.3h1.2
			v8.9h4.8v1.1h-5.9V322.3z M237.7,322.3h6.2v1.1h-5v3.2h4.7v1.1h-4.7v3.5h5v1.1h-6.2V322.3z M230,322.3l2.6,8.7h0l2.6-8.7h1.2
			l-3.2,10h-1.4l-3.2-10H230z M221.7,322.3h6.2v1.1h-5v3.2h4.7v1.1h-4.7v3.5h5v1.1h-6.2V322.3z M214.4,322.3h1.2v8.9h4.8v1.1h-5.9
			V322.3z M203.3,322.3h1.2v8.9h4.8v1.1h-5.9V322.3z M196,322.3h1.2v8.9h4.8v1.1H196V322.3z M192.5,322.3h1.2v10h-1.2V322.3z
			 M183.8,322.3h1.2v5l4.6-5h1.5l-3.8,4l3.9,6h-1.5l-3.2-5l-1.5,1.6v3.5h-1.2V322.3z M177.9,327.6c-1.4-0.4-2.9-0.8-2.9-2.6
			c0-2,1.6-2.9,3.3-2.9c1.8,0,3.2,1,3.3,3.2h-1.1c-0.1-1.4-1-2-2.2-2c-1,0-2,0.4-2,1.7c0,1.2,1.4,1.4,2.9,1.8
			c1.4,0.4,2.9,0.9,2.9,2.9c0,2.1-1.9,3-3.5,3c-2,0-3.7-1.1-3.7-3.5h1.1c0,1.7,1.3,2.4,2.6,2.4c1.1,0,2.3-0.4,2.3-1.8
			C180.8,328.2,179.4,327.9,177.9,327.6"/>
		<polygon id="XMLID_153_" class="st1" points="228.1,344.1 230,344.1 230,355.1 231.8,355.1 231.8,344.1 233.7,344.1 233.7,342.3 
			228.1,342.3 		"/>
		<path id="XMLID_150_" class="st1" d="M237.1,342.2c-1.8,0-2.8,1.2-2.8,3.2v6.7c0,2.1,1,3.2,2.8,3.2c1.8,0,2.8-1.2,2.8-3.2v-6.7
			C239.8,343.3,238.9,342.2,237.1,342.2 M238,352.2c0,0.9-0.4,1.3-0.9,1.3c-0.6,0-0.9-0.3-0.9-1.3v-6.9c0-0.9,0.4-1.3,0.9-1.3
			c0.6,0,0.9,0.3,0.9,1.3V352.2z"/>
		<path id="XMLID_147_" class="st1" d="M243.9,342.3H241v12.8h2.9c1.8,0,2.7-1.1,2.7-3.2v-6.5C246.6,343.4,245.7,342.3,243.9,342.3
			 M244.8,352.1c0,0.9-0.3,1.2-0.9,1.2h-1v-9.2h1c0.6,0,0.9,0.3,0.9,1.2V352.1z"/>
		<path id="XMLID_144_" class="st1" d="M250.3,342.2c-1.8,0-2.8,1.2-2.8,3.2v6.7c0,2.1,1,3.2,2.8,3.2c1.8,0,2.8-1.2,2.8-3.2v-6.7
			C253.1,343.3,252.1,342.2,250.3,342.2 M251.3,352.2c0,0.9-0.4,1.3-0.9,1.3c-0.6,0-0.9-0.3-0.9-1.3v-6.9c0-0.9,0.4-1.3,0.9-1.3
			c0.6,0,0.9,0.3,0.9,1.3V352.2z"/>
		<path id="XMLID_143_" class="st1" d="M259.4,342.2c-1.8,0-2.7,1.2-2.7,3.2v6.7c0,2.1,0.9,3.2,2.7,3.2c1.8,0,2.7-1.2,2.7-3.2v-1.7
			h-1.7v1.8c0,0.9-0.4,1.2-0.9,1.2c-0.6,0-0.9-0.3-0.9-1.2v-6.9c0-0.9,0.4-1.3,0.9-1.3c0.6,0,0.9,0.3,0.9,1.3v1.4h1.7v-1.2
			C262.1,343.3,261.2,342.2,259.4,342.2"/>
		<path id="XMLID_140_" class="st1" d="M264.6,342.3l-1.8,12.8h1.7l0.3-2.3h2.2l0.3,2.3h1.8l-1.8-12.8H264.6z M264.9,351.1l0.9-6.5
			l0.9,6.5H264.9z"/>
		<path id="XMLID_137_" class="st1" d="M275.4,351.6c0-1.3-0.3-2.3-1.2-2.7c0.8-0.4,1.2-1.3,1.2-2.6v-1c0-2-0.8-3-2.7-3h-2.7v12.8
			h1.8v-5.2h0.6c0.8,0,1.2,0.4,1.2,1.6v2c0,1,0.1,1.2,0.2,1.6h1.8c-0.2-0.5-0.2-0.9-0.2-1.6V351.6z M273.5,346.7
			c0,1-0.4,1.4-1.1,1.4h-0.7v-3.9h0.9c0.6,0,0.9,0.4,0.9,1.3V346.7z"/>
		<path id="XMLID_136_" class="st1" d="M279.1,342.2c-1.8,0-2.7,1.2-2.7,3.2v6.7c0,2.1,0.9,3.2,2.7,3.2c1.8,0,2.7-1.2,2.7-3.2V348
			h-2.5v1.8h0.8v2.4c0,0.9-0.4,1.2-0.9,1.2c-0.6,0-0.9-0.3-0.9-1.2v-6.9c0-0.9,0.4-1.3,0.9-1.3c0.6,0,0.9,0.3,0.9,1.3v1.4h1.7v-1.2
			C281.8,343.3,280.9,342.2,279.1,342.2"/>
		<path id="XMLID_133_" class="st1" d="M284.3,342.3l-1.8,12.8h1.7l0.3-2.3h2.2l0.3,2.3h1.8l-1.8-12.8H284.3z M284.7,351.1l0.9-6.5
			l0.9,6.5H284.7z"/>
		<path id="XMLID_130_" class="st1" d="M292.6,342.3h-2.9v12.8h2.9c1.8,0,2.7-1.1,2.7-3.2v-6.5C295.3,343.4,294.4,342.3,292.6,342.3
			 M293.5,352.1c0,0.9-0.3,1.2-0.9,1.2h-1v-9.2h1c0.6,0,0.9,0.3,0.9,1.2V352.1z"/>
		<path id="XMLID_127_" class="st1" d="M299,342.2c-1.8,0-2.8,1.2-2.8,3.2v6.7c0,2.1,1,3.2,2.8,3.2c1.8,0,2.8-1.2,2.8-3.2v-6.7
			C301.8,343.3,300.8,342.2,299,342.2 M300,352.2c0,0.9-0.4,1.3-0.9,1.3c-0.6,0-0.9-0.3-0.9-1.3v-6.9c0-0.9,0.4-1.3,0.9-1.3
			c0.6,0,0.9,0.3,0.9,1.3V352.2z"/>
		<path id="XMLID_126_" class="st0" d="M220.2,342.2h-13.8c1.3,0,2.3,1.2,2.3,2.7v7.6c0,1.5-1.1,2.7-2.3,2.7h13.8
			c1.3,0,2.4-1.2,2.4-2.7v-7.6C222.5,343.4,221.5,342.2,220.2,342.2"/>
		<path id="XMLID_125_" class="st0" d="M207.7,353.4h-20.9c0.1-0.2,0.2-0.5,0.2-0.7h20.9c0-0.1,0-0.2,0-0.3v-0.4H187v-0.7h20.9v-0.7
			H187v-0.7h20.9V349H187v-0.7h20.9v-0.7H187v-0.7h20.9v-0.7H187v-0.7h20.9v-0.3c0-0.2,0-0.3,0-0.5h-20.9c-0.1-0.3-0.1-0.5-0.3-0.7
			h20.9c-0.4-0.8-1.3-1.3-2.2-1.3h-17.3c-1.4,0-2.5,1.1-2.5,2.5v7.3c0,1.4,1.1,2.5,2.5,2.5h17.3
			C206.4,354.9,207.3,354.3,207.7,353.4"/>
		<path id="XMLID_124_" class="st0" d="M167.5,343.9v1.4h1.5v9.7h2v-12.8h-1.3C169.4,343.2,169,343.9,167.5,343.9"/>
		<path id="XMLID_121_" class="st0" d="M176.3,342.2c-1.9,0-3,1.2-3,3.2v6.6c0,2,1.1,3.2,3,3.2c1.9,0,3-1.2,3-3.2v-6.6
			C179.3,343.4,178.2,342.2,176.3,342.2 M177.3,352.2c0,0.9-0.4,1.3-1,1.3c-0.6,0-1-0.3-1-1.3v-6.9c0-0.9,0.4-1.3,1-1.3
			c0.6,0,1,0.3,1,1.3V352.2z"/>
		<polygon id="XMLID_120_" class="st1" points="18,93.1 18,93.1 16.5,98.2 19.5,98.2 		"/>
		<path id="XMLID_115_" class="st1" d="M0,111.5h40.2V81.2H0V111.5z M25.7,89h3.2v2.7h-3.2V89z M25.7,93h3.2v10.7h-3.2V93z M16.3,89
			h3.5l5,14.7h-3.6l-0.8-2.6h-4.6l-0.8,2.6h-3.5L16.3,89z"/>
		<path id="XMLID_114_" class="st0" d="M22.6,134.5h-5.1c-1,0-1.8-0.7-1.8-1.6v9.2c0,0.9,0.8,1.6,1.8,1.6h5.1c1,0,1.8-0.7,1.8-1.6
			v-9.2C24.4,133.8,23.6,134.5,22.6,134.5"/>
		<path id="XMLID_113_" class="st0" d="M24.2,132.3v-11.6c0-0.9-0.8-1.7-1.7-1.7h-4.9c-0.9,0-1.7,0.8-1.7,1.7v11.6
			c0,0.7,0.4,1.3,1,1.5v-14c0.2,0.1,0.3,0.1,0.5,0.1v14c0.1,0,0.1,0,0.2,0h0.3v-14h0.5v14h0.5v-14h0.5v14h0.5v-14h0.5v14h0.5v-14
			h0.5v14h0.5v-14h0.5v14h0.2c0.1,0,0.2,0,0.3,0v-14c0.2,0,0.3-0.1,0.5-0.2v14C23.8,133.5,24.2,132.9,24.2,132.3"/>
		<path id="XMLID_112_" class="st0" d="M22.6,162.1h-5.1c-1,0-1.8-0.7-1.8-1.6v9.2c0,0.9,0.8,1.6,1.8,1.6h5.1c1,0,1.8-0.7,1.8-1.6
			v-9.2C24.4,161.4,23.6,162.1,22.6,162.1"/>
		<path id="XMLID_111_" class="st0" d="M24.2,159.9v-11.6c0-0.9-0.8-1.7-1.7-1.7h-4.9c-0.9,0-1.7,0.8-1.7,1.7v11.6
			c0,0.7,0.4,1.3,1,1.5v-14c0.2,0.1,0.3,0.1,0.5,0.1v14c0.1,0,0.1,0,0.2,0h0.3v-14h0.5v14h0.5v-14h0.5v14h0.5v-14h0.5v14h0.5v-14
			h0.5v14h0.5v-14h0.5v14h0.2c0.1,0,0.2,0,0.3,0v-14c0.2,0,0.3-0.1,0.5-0.2v14C23.8,161.1,24.2,160.5,24.2,159.9"/>
		<path id="XMLID_110_" class="st0" d="M22.6,189.8h-5.1c-1,0-1.8-0.7-1.8-1.6v9.2c0,0.9,0.8,1.6,1.8,1.6h5.1c1,0,1.8-0.7,1.8-1.6
			v-9.2C24.4,189,23.6,189.8,22.6,189.8"/>
		<path id="XMLID_109_" class="st0" d="M24.2,187.5v-11.6c0-0.9-0.8-1.7-1.7-1.7h-4.9c-0.9,0-1.7,0.8-1.7,1.7v11.6
			c0,0.7,0.4,1.3,1,1.5v-14c0.2,0.1,0.3,0.1,0.5,0.1v14c0.1,0,0.1,0,0.2,0h0.3v-14h0.5v14h0.5v-14h0.5v14h0.5v-14h0.5v14h0.5v-14
			h0.5v14h0.5v-14h0.5v14h0.2c0.1,0,0.2,0,0.3,0v-14c0.2,0,0.3-0.1,0.5-0.2v14C23.8,188.7,24.2,188.2,24.2,187.5"/>
		<path id="XMLID_108_" class="st0" d="M22.6,217.4h-5.1c-1,0-1.8-0.7-1.8-1.6v9.2c0,0.9,0.8,1.6,1.8,1.6h5.1c1,0,1.8-0.7,1.8-1.6
			v-9.2C24.4,216.7,23.6,217.4,22.6,217.4"/>
		<path id="XMLID_107_" class="st0" d="M24.2,215.1v-11.6c0-0.9-0.8-1.7-1.7-1.7h-4.9c-0.9,0-1.7,0.8-1.7,1.7v11.6
			c0,0.7,0.4,1.3,1,1.5v-14c0.2,0.1,0.3,0.1,0.5,0.1v14c0.1,0,0.1,0,0.2,0h0.3v-14h0.5v14h0.5v-14h0.5v14h0.5v-14h0.5v14h0.5v-14
			h0.5v14h0.5v-14h0.5v14h0.2c0.1,0,0.2,0,0.3,0v-14c0.2,0,0.3-0.1,0.5-0.2v14C23.8,216.3,24.2,215.8,24.2,215.1"/>
		<path id="XMLID_106_" class="st0" d="M22.6,245h-5.1c-1,0-1.8-0.7-1.8-1.6v9.2c0,0.9,0.8,1.6,1.8,1.6h5.1c1,0,1.8-0.7,1.8-1.6
			v-9.2C24.4,244.3,23.6,245,22.6,245"/>
		<path id="XMLID_105_" class="st0" d="M24.2,242.8v-11.6c0-0.9-0.8-1.7-1.7-1.7h-4.9c-0.9,0-1.7,0.8-1.7,1.7v11.6
			c0,0.7,0.4,1.3,1,1.5v-14c0.2,0.1,0.3,0.1,0.5,0.1v14c0.1,0,0.1,0,0.2,0h0.3v-14h0.5v14h0.5v-14h0.5v14h0.5v-14h0.5v14h0.5v-14
			h0.5v14h0.5v-14h0.5v14h0.2c0.1,0,0.2,0,0.3,0v-14c0.2,0,0.3-0.1,0.5-0.2v14C23.8,244,24.2,243.4,24.2,242.8"/>
		<path id="XMLID_104_" class="st0" d="M22.6,272.6h-5.1c-1,0-1.8-0.7-1.8-1.6v9.2c0,0.9,0.8,1.6,1.8,1.6h5.1c1,0,1.8-0.7,1.8-1.6
			v-9.2C24.4,271.9,23.6,272.6,22.6,272.6"/>
		<path id="XMLID_103_" class="st0" d="M24.2,270.4v-11.6c0-0.9-0.8-1.7-1.7-1.7h-4.9c-0.9,0-1.7,0.8-1.7,1.7v11.6
			c0,0.7,0.4,1.3,1,1.5v-14c0.2,0.1,0.3,0.1,0.5,0.1v14c0.1,0,0.1,0,0.2,0h0.3v-14h0.5v14h0.5v-14h0.5v14h0.5v-14h0.5v14h0.5v-14
			h0.5v14h0.5v-14h0.5v14h0.2c0.1,0,0.2,0,0.3,0v-14c0.2,0,0.3-0.1,0.5-0.2v14C23.8,271.6,24.2,271,24.2,270.4"/>
		<path id="XMLID_102_" class="st0" d="M22.6,300.3h-5.1c-1,0-1.8-0.7-1.8-1.6v9.2c0,0.9,0.8,1.6,1.8,1.6h5.1c1,0,1.8-0.7,1.8-1.6
			v-9.2C24.4,299.5,23.6,300.3,22.6,300.3"/>
		<path id="XMLID_101_" class="st0" d="M24.2,298v-11.6c0-0.9-0.8-1.7-1.7-1.7h-4.9c-0.9,0-1.7,0.8-1.7,1.7V298c0,0.7,0.4,1.3,1,1.5
			v-14c0.2,0.1,0.3,0.1,0.5,0.1v14c0.1,0,0.1,0,0.2,0h0.3v-14h0.5v14h0.5v-14h0.5v14h0.5v-14h0.5v14h0.5v-14h0.5v14h0.5v-14h0.5v14
			h0.2c0.1,0,0.2,0,0.3,0v-14c0.2,0,0.3-0.1,0.5-0.2v14C23.8,299.2,24.2,298.7,24.2,298"/>
		<path id="XMLID_100_" class="st0" d="M22.6,327.9h-5.1c-1,0-1.8-0.7-1.8-1.6v9.2c0,0.9,0.8,1.6,1.8,1.6h5.1c1,0,1.8-0.7,1.8-1.6
			v-9.2C24.4,327.2,23.6,327.9,22.6,327.9"/>
		<path id="XMLID_99_" class="st0" d="M24.2,325.6v-11.6c0-0.9-0.8-1.7-1.7-1.7h-4.9c-0.9,0-1.7,0.8-1.7,1.7v11.6
			c0,0.7,0.4,1.3,1,1.5v-14c0.2,0.1,0.3,0.1,0.5,0.1v14c0.1,0,0.1,0,0.2,0h0.3v-14h0.5v14h0.5v-14h0.5v14h0.5v-14h0.5v14h0.5v-14
			h0.5v14h0.5v-14h0.5v14h0.2c0.1,0,0.2,0,0.3,0v-14c0.2,0,0.3-0.1,0.5-0.2v14C23.8,326.8,24.2,326.3,24.2,325.6"/>
		<path id="XMLID_98_" class="st0" d="M22.6,355.5h-5.1c-1,0-1.8-0.7-1.8-1.6v9.2c0,0.9,0.8,1.6,1.8,1.6h5.1c1,0,1.8-0.7,1.8-1.6
			v-9.2C24.4,354.8,23.6,355.5,22.6,355.5"/>
		<path id="XMLID_97_" class="st0" d="M24.2,353.3v-11.6c0-0.9-0.8-1.7-1.7-1.7h-4.9c-0.9,0-1.7,0.8-1.7,1.7v11.6
			c0,0.7,0.4,1.3,1,1.5v-14c0.2,0.1,0.3,0.1,0.5,0.1v14c0.1,0,0.1,0,0.2,0h0.3v-14h0.5v14h0.5v-14h0.5v14h0.5v-14h0.5v14h0.5v-14
			h0.5v14h0.5v-14h0.5v14h0.2c0.1,0,0.2,0,0.3,0v-14c0.2,0,0.3-0.1,0.5-0.2v14C23.8,354.5,24.2,353.9,24.2,353.3"/>
		<path id="XMLID_96_" class="st0" d="M22.6,383.1h-5.1c-1,0-1.8-0.7-1.8-1.6v9.2c0,0.9,0.8,1.6,1.8,1.6h5.1c1,0,1.8-0.7,1.8-1.6
			v-9.2C24.4,382.4,23.6,383.1,22.6,383.1"/>
		<path id="XMLID_95_" class="st0" d="M24.2,380.9v-11.6c0-0.9-0.8-1.7-1.7-1.7h-4.9c-0.9,0-1.7,0.8-1.7,1.7v11.6
			c0,0.7,0.4,1.3,1,1.5v-14c0.2,0.1,0.3,0.1,0.5,0.1v14c0.1,0,0.1,0,0.2,0h0.3v-14h0.5v14h0.5v-14h0.5v14h0.5v-14h0.5v14h0.5v-14
			h0.5v14h0.5v-14h0.5v14h0.2c0.1,0,0.2,0,0.3,0v-14c0.2,0,0.3-0.1,0.5-0.2v14C23.8,382.1,24.2,381.5,24.2,380.9"/>
		<path id="XMLID_94_" class="st1" d="M70.4,93.9c0-1.4-0.8-1.9-1.9-1.9h-2.3v3.8h2.3C69.6,95.8,70.4,95.3,70.4,93.9"/>
		<path id="XMLID_90_" class="st1" d="M53.3,111.6h40.2V81.3H53.3V111.6z M79.4,99.4c-2-0.6-4.5-0.6-4.5-3.5c0-2.6,2.5-3.3,4.4-3.3
			c2.1,0,4.3,0.7,4.4,3.5h-2.9c0-0.5-0.1-0.7-0.4-0.9c-0.3-0.2-0.6-0.3-1-0.3c-0.5,0-1.4,0.1-1.4,0.8c0,1,2.1,1.2,3.6,1.5
			c1.9,0.4,2.4,2,2.4,2.9c0,2.9-2.4,3.8-4.6,3.8c-2.3,0-4.6-0.8-4.7-3.8h3c0,0.5,0.2,0.9,0.5,1.2c0.3,0.2,0.7,0.4,1.2,0.4
			c0.6,0,1.5-0.3,1.5-1.1C80.9,99.7,79.9,99.6,79.4,99.4 M62.7,88.9H69c2.5,0,4.8,1.3,4.8,4.7c0,3.6-1.9,5.1-4.8,5.1h-2.8v4.9h-3.5
			V88.9z"/>
		<path id="XMLID_89_" class="st0" d="M76,134.5h-5.1c-1,0-1.8-0.7-1.8-1.6v9.2c0,0.9,0.8,1.6,1.8,1.6H76c1,0,1.8-0.7,1.8-1.6v-9.2
			C77.8,133.8,77,134.5,76,134.5"/>
		<path id="XMLID_88_" class="st0" d="M77.5,132.3v-11.6c0-0.9-0.8-1.7-1.7-1.7H71c-0.9,0-1.7,0.8-1.7,1.7v11.6c0,0.7,0.4,1.3,1,1.5
			v-14c0.2,0.1,0.3,0.1,0.5,0.1v14c0.1,0,0.1,0,0.2,0h0.3v-14h0.5v14h0.5v-14h0.5v14h0.5v-14h0.5v14h0.5v-14h0.5v14h0.5v-14h0.5v14
			h0.2c0.1,0,0.2,0,0.3,0v-14c0.2,0,0.3-0.1,0.5-0.2v14C77.2,133.5,77.5,132.9,77.5,132.3"/>
		<path id="XMLID_87_" class="st0" d="M76,162.1h-5.1c-1,0-1.8-0.7-1.8-1.6v9.2c0,0.9,0.8,1.6,1.8,1.6H76c1,0,1.8-0.7,1.8-1.6v-9.2
			C77.8,161.4,77,162.1,76,162.1"/>
		<path id="XMLID_86_" class="st0" d="M77.5,159.9v-11.6c0-0.9-0.8-1.7-1.7-1.7H71c-0.9,0-1.7,0.8-1.7,1.7v11.6c0,0.7,0.4,1.3,1,1.5
			v-14c0.2,0.1,0.3,0.1,0.5,0.1v14c0.1,0,0.1,0,0.2,0h0.3v-14h0.5v14h0.5v-14h0.5v14h0.5v-14h0.5v14h0.5v-14h0.5v14h0.5v-14h0.5v14
			h0.2c0.1,0,0.2,0,0.3,0v-14c0.2,0,0.3-0.1,0.5-0.2v14C77.2,161.1,77.5,160.5,77.5,159.9"/>
		<path id="XMLID_85_" class="st0" d="M76,189.8h-5.1c-1,0-1.8-0.7-1.8-1.6v9.2c0,0.9,0.8,1.6,1.8,1.6H76c1,0,1.8-0.7,1.8-1.6v-9.2
			C77.8,189,77,189.8,76,189.8"/>
		<path id="XMLID_84_" class="st0" d="M77.5,187.5v-11.6c0-0.9-0.8-1.7-1.7-1.7H71c-0.9,0-1.7,0.8-1.7,1.7v11.6c0,0.7,0.4,1.3,1,1.5
			v-14c0.2,0.1,0.3,0.1,0.5,0.1v14c0.1,0,0.1,0,0.2,0h0.3v-14h0.5v14h0.5v-14h0.5v14h0.5v-14h0.5v14h0.5v-14h0.5v14h0.5v-14h0.5v14
			h0.2c0.1,0,0.2,0,0.3,0v-14c0.2,0,0.3-0.1,0.5-0.2v14C77.2,188.7,77.5,188.2,77.5,187.5"/>
		<path id="XMLID_83_" class="st0" d="M76,217.4h-5.1c-1,0-1.8-0.7-1.8-1.6v9.2c0,0.9,0.8,1.6,1.8,1.6H76c1,0,1.8-0.7,1.8-1.6v-9.2
			C77.8,216.7,77,217.4,76,217.4"/>
		<path id="XMLID_82_" class="st0" d="M77.5,215.1v-11.6c0-0.9-0.8-1.7-1.7-1.7H71c-0.9,0-1.7,0.8-1.7,1.7v11.6c0,0.7,0.4,1.3,1,1.5
			v-14c0.2,0.1,0.3,0.1,0.5,0.1v14c0.1,0,0.1,0,0.2,0h0.3v-14h0.5v14h0.5v-14h0.5v14h0.5v-14h0.5v14h0.5v-14h0.5v14h0.5v-14h0.5v14
			h0.2c0.1,0,0.2,0,0.3,0v-14c0.2,0,0.3-0.1,0.5-0.2v14C77.2,216.3,77.5,215.8,77.5,215.1"/>
		<path id="XMLID_81_" class="st0" d="M76,245h-5.1c-1,0-1.8-0.7-1.8-1.6v9.2c0,0.9,0.8,1.6,1.8,1.6H76c1,0,1.8-0.7,1.8-1.6v-9.2
			C77.8,244.3,77,245,76,245"/>
		<path id="XMLID_80_" class="st0" d="M77.5,242.8v-11.6c0-0.9-0.8-1.7-1.7-1.7H71c-0.9,0-1.7,0.8-1.7,1.7v11.6c0,0.7,0.4,1.3,1,1.5
			v-14c0.2,0.1,0.3,0.1,0.5,0.1v14c0.1,0,0.1,0,0.2,0h0.3v-14h0.5v14h0.5v-14h0.5v14h0.5v-14h0.5v14h0.5v-14h0.5v14h0.5v-14h0.5v14
			h0.2c0.1,0,0.2,0,0.3,0v-14c0.2,0,0.3-0.1,0.5-0.2v14C77.2,244,77.5,243.4,77.5,242.8"/>
		<path id="XMLID_79_" class="st0" d="M76,272.6h-5.1c-1,0-1.8-0.7-1.8-1.6v9.2c0,0.9,0.8,1.6,1.8,1.6H76c1,0,1.8-0.7,1.8-1.6v-9.2
			C77.8,271.9,77,272.6,76,272.6"/>
		<path id="XMLID_78_" class="st0" d="M77.5,270.4v-11.6c0-0.9-0.8-1.7-1.7-1.7H71c-0.9,0-1.7,0.8-1.7,1.7v11.6c0,0.7,0.4,1.3,1,1.5
			v-14c0.2,0.1,0.3,0.1,0.5,0.1v14c0.1,0,0.1,0,0.2,0h0.3v-14h0.5v14h0.5v-14h0.5v14h0.5v-14h0.5v14h0.5v-14h0.5v14h0.5v-14h0.5v14
			h0.2c0.1,0,0.2,0,0.3,0v-14c0.2,0,0.3-0.1,0.5-0.2v14C77.2,271.6,77.5,271,77.5,270.4"/>
		<path id="XMLID_77_" class="st0" d="M76,300.3h-5.1c-1,0-1.8-0.7-1.8-1.6v9.2c0,0.9,0.8,1.6,1.8,1.6H76c1,0,1.8-0.7,1.8-1.6v-9.2
			C77.8,299.5,77,300.3,76,300.3"/>
		<path id="XMLID_76_" class="st0" d="M77.5,298v-11.6c0-0.9-0.8-1.7-1.7-1.7H71c-0.9,0-1.7,0.8-1.7,1.7V298c0,0.7,0.4,1.3,1,1.5
			v-14c0.2,0.1,0.3,0.1,0.5,0.1v14c0.1,0,0.1,0,0.2,0h0.3v-14h0.5v14h0.5v-14h0.5v14h0.5v-14h0.5v14h0.5v-14h0.5v14h0.5v-14h0.5v14
			h0.2c0.1,0,0.2,0,0.3,0v-14c0.2,0,0.3-0.1,0.5-0.2v14C77.2,299.2,77.5,298.7,77.5,298"/>
		<path id="XMLID_75_" class="st0" d="M76,327.9h-5.1c-1,0-1.8-0.7-1.8-1.6v9.2c0,0.9,0.8,1.6,1.8,1.6H76c1,0,1.8-0.7,1.8-1.6v-9.2
			C77.8,327.2,77,327.9,76,327.9"/>
		<path id="XMLID_74_" class="st0" d="M77.5,325.6v-11.6c0-0.9-0.8-1.7-1.7-1.7H71c-0.9,0-1.7,0.8-1.7,1.7v11.6c0,0.7,0.4,1.3,1,1.5
			v-14c0.2,0.1,0.3,0.1,0.5,0.1v14c0.1,0,0.1,0,0.2,0h0.3v-14h0.5v14h0.5v-14h0.5v14h0.5v-14h0.5v14h0.5v-14h0.5v14h0.5v-14h0.5v14
			h0.2c0.1,0,0.2,0,0.3,0v-14c0.2,0,0.3-0.1,0.5-0.2v14C77.2,326.8,77.5,326.3,77.5,325.6"/>
		<path id="XMLID_73_" class="st0" d="M76,355.5h-5.1c-1,0-1.8-0.7-1.8-1.6v9.2c0,0.9,0.8,1.6,1.8,1.6H76c1,0,1.8-0.7,1.8-1.6v-9.2
			C77.8,354.8,77,355.5,76,355.5"/>
		<path id="XMLID_72_" class="st0" d="M77.5,353.3v-11.6c0-0.9-0.8-1.7-1.7-1.7H71c-0.9,0-1.7,0.8-1.7,1.7v11.6c0,0.7,0.4,1.3,1,1.5
			v-14c0.2,0.1,0.3,0.1,0.5,0.1v14c0.1,0,0.1,0,0.2,0h0.3v-14h0.5v14h0.5v-14h0.5v14h0.5v-14h0.5v14h0.5v-14h0.5v14h0.5v-14h0.5v14
			h0.2c0.1,0,0.2,0,0.3,0v-14c0.2,0,0.3-0.1,0.5-0.2v14C77.2,354.5,77.5,353.9,77.5,353.3"/>
		<path id="XMLID_71_" class="st1" d="M129.7,101.3c1.5,0,1.9-1.6,1.9-3c0-1.5-0.5-3-1.9-3c-1.4,0-1.9,1.5-1.9,2.9
			C127.8,99.6,128.3,101.3,129.7,101.3"/>
		<path id="XMLID_67_" class="st1" d="M106.9,111.6h40.2V81.3h-40.2V111.6z M128.7,92.6c1.2,0,2.1,0.5,2.7,1.5h0v-5.2h3.2v14.7h-3
			v-1.2h0c-0.6,1-1.5,1.5-2.7,1.5c-3,0-4.3-2.9-4.3-5.9C124.6,95.3,126,92.6,128.7,92.6 M119.4,88.9h3.5v14.7h-3.5V88.9z"/>
		<path id="XMLID_66_" class="st0" d="M129.6,134.5h-5.1c-1,0-1.8-0.7-1.8-1.6v9.2c0,0.9,0.8,1.6,1.8,1.6h5.1c1,0,1.8-0.7,1.8-1.6
			v-9.2C131.4,133.8,130.6,134.5,129.6,134.5"/>
		<path id="XMLID_65_" class="st0" d="M131.1,132.3v-11.6c0-0.9-0.8-1.7-1.7-1.7h-4.9c-0.9,0-1.7,0.8-1.7,1.7v11.6
			c0,0.7,0.4,1.3,1,1.5v-14c0.2,0.1,0.3,0.1,0.5,0.1v14c0.1,0,0.1,0,0.2,0h0.3v-14h0.5v14h0.5v-14h0.5v14h0.5v-14h0.5v14h0.5v-14
			h0.5v14h0.5v-14h0.5v14h0.2c0.1,0,0.2,0,0.3,0v-14c0.2,0,0.3-0.1,0.5-0.2v14C130.8,133.5,131.1,132.9,131.1,132.3"/>
		<path id="XMLID_64_" class="st0" d="M129.6,162.1h-5.1c-1,0-1.8-0.7-1.8-1.6v9.2c0,0.9,0.8,1.6,1.8,1.6h5.1c1,0,1.8-0.7,1.8-1.6
			v-9.2C131.4,161.4,130.6,162.1,129.6,162.1"/>
		<path id="XMLID_63_" class="st0" d="M131.1,159.9v-11.6c0-0.9-0.8-1.7-1.7-1.7h-4.9c-0.9,0-1.7,0.8-1.7,1.7v11.6
			c0,0.7,0.4,1.3,1,1.5v-14c0.2,0.1,0.3,0.1,0.5,0.1v14c0.1,0,0.1,0,0.2,0h0.3v-14h0.5v14h0.5v-14h0.5v14h0.5v-14h0.5v14h0.5v-14
			h0.5v14h0.5v-14h0.5v14h0.2c0.1,0,0.2,0,0.3,0v-14c0.2,0,0.3-0.1,0.5-0.2v14C130.8,161.1,131.1,160.5,131.1,159.9"/>
		<path id="XMLID_62_" class="st0" d="M129.6,189.8h-5.1c-1,0-1.8-0.7-1.8-1.6v9.2c0,0.9,0.8,1.6,1.8,1.6h5.1c1,0,1.8-0.7,1.8-1.6
			v-9.2C131.4,189,130.6,189.8,129.6,189.8"/>
		<path id="XMLID_61_" class="st0" d="M131.1,187.5v-11.6c0-0.9-0.8-1.7-1.7-1.7h-4.9c-0.9,0-1.7,0.8-1.7,1.7v11.6
			c0,0.7,0.4,1.3,1,1.5v-14c0.2,0.1,0.3,0.1,0.5,0.1v14c0.1,0,0.1,0,0.2,0h0.3v-14h0.5v14h0.5v-14h0.5v14h0.5v-14h0.5v14h0.5v-14
			h0.5v14h0.5v-14h0.5v14h0.2c0.1,0,0.2,0,0.3,0v-14c0.2,0,0.3-0.1,0.5-0.2v14C130.8,188.7,131.1,188.2,131.1,187.5"/>
		<path id="XMLID_60_" class="st0" d="M129.6,217.4h-5.1c-1,0-1.8-0.7-1.8-1.6v9.2c0,0.9,0.8,1.6,1.8,1.6h5.1c1,0,1.8-0.7,1.8-1.6
			v-9.2C131.4,216.7,130.6,217.4,129.6,217.4"/>
		<path id="XMLID_59_" class="st0" d="M131.1,215.1v-11.6c0-0.9-0.8-1.7-1.7-1.7h-4.9c-0.9,0-1.7,0.8-1.7,1.7v11.6
			c0,0.7,0.4,1.3,1,1.5v-14c0.2,0.1,0.3,0.1,0.5,0.1v14c0.1,0,0.1,0,0.2,0h0.3v-14h0.5v14h0.5v-14h0.5v14h0.5v-14h0.5v14h0.5v-14
			h0.5v14h0.5v-14h0.5v14h0.2c0.1,0,0.2,0,0.3,0v-14c0.2,0,0.3-0.1,0.5-0.2v14C130.8,216.3,131.1,215.8,131.1,215.1"/>
		<path id="XMLID_58_" class="st0" d="M129.6,245h-5.1c-1,0-1.8-0.7-1.8-1.6v9.2c0,0.9,0.8,1.6,1.8,1.6h5.1c1,0,1.8-0.7,1.8-1.6
			v-9.2C131.4,244.3,130.6,245,129.6,245"/>
		<path id="XMLID_57_" class="st0" d="M131.1,242.8v-11.6c0-0.9-0.8-1.7-1.7-1.7h-4.9c-0.9,0-1.7,0.8-1.7,1.7v11.6
			c0,0.7,0.4,1.3,1,1.5v-14c0.2,0.1,0.3,0.1,0.5,0.1v14c0.1,0,0.1,0,0.2,0h0.3v-14h0.5v14h0.5v-14h0.5v14h0.5v-14h0.5v14h0.5v-14
			h0.5v14h0.5v-14h0.5v14h0.2c0.1,0,0.2,0,0.3,0v-14c0.2,0,0.3-0.1,0.5-0.2v14C130.8,244,131.1,243.4,131.1,242.8"/>
		<path id="XMLID_56_" class="st0" d="M129.6,272.6h-5.1c-1,0-1.8-0.7-1.8-1.6v9.2c0,0.9,0.8,1.6,1.8,1.6h5.1c1,0,1.8-0.7,1.8-1.6
			v-9.2C131.4,271.9,130.6,272.6,129.6,272.6"/>
		<path id="XMLID_55_" class="st0" d="M131.1,270.4v-11.6c0-0.9-0.8-1.7-1.7-1.7h-4.9c-0.9,0-1.7,0.8-1.7,1.7v11.6
			c0,0.7,0.4,1.3,1,1.5v-14c0.2,0.1,0.3,0.1,0.5,0.1v14c0.1,0,0.1,0,0.2,0h0.3v-14h0.5v14h0.5v-14h0.5v14h0.5v-14h0.5v14h0.5v-14
			h0.5v14h0.5v-14h0.5v14h0.2c0.1,0,0.2,0,0.3,0v-14c0.2,0,0.3-0.1,0.5-0.2v14C130.8,271.6,131.1,271,131.1,270.4"/>
		<path id="XMLID_54_" class="st0" d="M129.6,300.3h-5.1c-1,0-1.8-0.7-1.8-1.6v9.2c0,0.9,0.8,1.6,1.8,1.6h5.1c1,0,1.8-0.7,1.8-1.6
			v-9.2C131.4,299.5,130.6,300.3,129.6,300.3"/>
		<path id="XMLID_53_" class="st0" d="M131.1,298v-11.6c0-0.9-0.8-1.7-1.7-1.7h-4.9c-0.9,0-1.7,0.8-1.7,1.7V298c0,0.7,0.4,1.3,1,1.5
			v-14c0.2,0.1,0.3,0.1,0.5,0.1v14c0.1,0,0.1,0,0.2,0h0.3v-14h0.5v14h0.5v-14h0.5v14h0.5v-14h0.5v14h0.5v-14h0.5v14h0.5v-14h0.5v14
			h0.2c0.1,0,0.2,0,0.3,0v-14c0.2,0,0.3-0.1,0.5-0.2v14C130.8,299.2,131.1,298.7,131.1,298"/>
		<path id="XMLID_52_" class="st0" d="M129.6,327.9h-5.1c-1,0-1.8-0.7-1.8-1.6v9.2c0,0.9,0.8,1.6,1.8,1.6h5.1c1,0,1.8-0.7,1.8-1.6
			v-9.2C131.4,327.2,130.6,327.9,129.6,327.9"/>
		<path id="XMLID_51_" class="st0" d="M131.1,325.6v-11.6c0-0.9-0.8-1.7-1.7-1.7h-4.9c-0.9,0-1.7,0.8-1.7,1.7v11.6
			c0,0.7,0.4,1.3,1,1.5v-14c0.2,0.1,0.3,0.1,0.5,0.1v14c0.1,0,0.1,0,0.2,0h0.3v-14h0.5v14h0.5v-14h0.5v14h0.5v-14h0.5v14h0.5v-14
			h0.5v14h0.5v-14h0.5v14h0.2c0.1,0,0.2,0,0.3,0v-14c0.2,0,0.3-0.1,0.5-0.2v14C130.8,326.8,131.1,326.3,131.1,325.6"/>
		<path id="XMLID_50_" class="st0" d="M129.6,355.5h-5.1c-1,0-1.8-0.7-1.8-1.6v9.2c0,0.9,0.8,1.6,1.8,1.6h5.1c1,0,1.8-0.7,1.8-1.6
			v-9.2C131.4,354.8,130.6,355.5,129.6,355.5"/>
		<path id="XMLID_49_" class="st0" d="M131.1,353.3v-11.6c0-0.9-0.8-1.7-1.7-1.7h-4.9c-0.9,0-1.7,0.8-1.7,1.7v11.6
			c0,0.7,0.4,1.3,1,1.5v-14c0.2,0.1,0.3,0.1,0.5,0.1v14c0.1,0,0.1,0,0.2,0h0.3v-14h0.5v14h0.5v-14h0.5v14h0.5v-14h0.5v14h0.5v-14
			h0.5v14h0.5v-14h0.5v14h0.2c0.1,0,0.2,0,0.3,0v-14c0.2,0,0.3-0.1,0.5-0.2v14C130.8,354.5,131.1,353.9,131.1,353.3"/>
		<path id="XMLID_45_" class="st1" d="M201,81.2h-40.2v30.3H201V81.2z M183.4,92.1h-6.3v3h5.5v3h-5.5v5.7h-3.5V89h9.8V92.1z
			 M188.1,103.7H185V89h3.2V103.7z"/>
		<path id="XMLID_44_" class="st0" d="M185.2,132.9c0,0.9-0.8,1.6-1.8,1.6h-5.1c-1,0-1.8-0.7-1.8-1.6v9.2c0,0.9,0.8,1.6,1.8,1.6h5.1
			c1,0,1.8-0.7,1.8-1.6V132.9z"/>
		<path id="XMLID_43_" class="st0" d="M185,132.3v-11.6c0-0.9-0.8-1.7-1.7-1.7h-4.9c-0.9,0-1.7,0.8-1.7,1.7v11.6
			c0,0.7,0.4,1.3,1,1.5v-14c0.2,0.1,0.3,0.1,0.5,0.1v14c0.1,0,0.1,0,0.2,0h0.3v-14h0.5v14h0.5v-14h0.5v14h0.5v-14h0.5v14h0.5v-14
			h0.5v14h0.5v-14h0.5v14h0.2c0.1,0,0.2,0,0.3,0v-14c0.2,0,0.3-0.1,0.5-0.2v14C184.6,133.5,185,132.9,185,132.3"/>
		<path id="XMLID_42_" class="st0" d="M185.2,160.6c0,0.9-0.8,1.6-1.8,1.6h-5.1c-1,0-1.8-0.7-1.8-1.6v9.2c0,0.9,0.8,1.6,1.8,1.6h5.1
			c1,0,1.8-0.7,1.8-1.6V160.6z"/>
		<path id="XMLID_41_" class="st0" d="M185,159.9v-11.6c0-0.9-0.8-1.7-1.7-1.7h-4.9c-0.9,0-1.7,0.8-1.7,1.7v11.6
			c0,0.7,0.4,1.3,1,1.5v-14c0.2,0.1,0.3,0.1,0.5,0.1v14c0.1,0,0.1,0,0.2,0h0.3v-14h0.5v14h0.5v-14h0.5v14h0.5v-14h0.5v14h0.5v-14
			h0.5v14h0.5v-14h0.5v14h0.2c0.1,0,0.2,0,0.3,0v-14c0.2,0,0.3-0.1,0.5-0.2v14C184.6,161.1,185,160.5,185,159.9"/>
		<path id="XMLID_40_" class="st0" d="M185.2,188.2c0,0.9-0.8,1.6-1.8,1.6h-5.1c-1,0-1.8-0.7-1.8-1.6v9.2c0,0.9,0.8,1.6,1.8,1.6h5.1
			c1,0,1.8-0.7,1.8-1.6V188.2z"/>
		<path id="XMLID_39_" class="st0" d="M185,187.5v-11.6c0-0.9-0.8-1.7-1.7-1.7h-4.9c-0.9,0-1.7,0.8-1.7,1.7v11.6
			c0,0.7,0.4,1.3,1,1.5v-14c0.2,0.1,0.3,0.1,0.5,0.1v14c0.1,0,0.1,0,0.2,0h0.3v-14h0.5v14h0.5v-14h0.5v14h0.5v-14h0.5v14h0.5v-14
			h0.5v14h0.5v-14h0.5v14h0.2c0.1,0,0.2,0,0.3,0v-14c0.2,0,0.3-0.1,0.5-0.2v14C184.6,188.7,185,188.2,185,187.5"/>
		<path id="XMLID_38_" class="st0" d="M185.2,215.8c0,0.9-0.8,1.6-1.8,1.6h-5.1c-1,0-1.8-0.7-1.8-1.6v9.2c0,0.9,0.8,1.6,1.8,1.6h5.1
			c1,0,1.8-0.7,1.8-1.6V215.8z"/>
		<path id="XMLID_37_" class="st0" d="M185,215.1v-11.6c0-0.9-0.8-1.7-1.7-1.7h-4.9c-0.9,0-1.7,0.8-1.7,1.7v11.6
			c0,0.7,0.4,1.3,1,1.5v-14c0.2,0.1,0.3,0.1,0.5,0.1v14c0.1,0,0.1,0,0.2,0h0.3v-14h0.5v14h0.5v-14h0.5v14h0.5v-14h0.5v14h0.5v-14
			h0.5v14h0.5v-14h0.5v14h0.2c0.1,0,0.2,0,0.3,0v-14c0.2,0,0.3-0.1,0.5-0.2v14C184.6,216.3,185,215.8,185,215.1"/>
		<path id="XMLID_36_" class="st0" d="M176.5,252.7c0,0.9,0.8,1.6,1.8,1.6h5.1c1,0,1.8-0.7,1.8-1.6v-9.2c0,0.9-0.8,1.6-1.8,1.6h-5.1
			c-1,0-1.8-0.7-1.8-1.6V252.7z"/>
		<path id="XMLID_35_" class="st0" d="M185,242.8v-11.6c0-0.9-0.8-1.7-1.7-1.7h-4.9c-0.9,0-1.7,0.8-1.7,1.7v11.6
			c0,0.7,0.4,1.3,1,1.5v-14c0.2,0.1,0.3,0.1,0.5,0.1v14c0.1,0,0.1,0,0.2,0h0.3v-14h0.5v14h0.5v-14h0.5v14h0.5v-14h0.5v14h0.5v-14
			h0.5v14h0.5v-14h0.5v14h0.2c0.1,0,0.2,0,0.3,0v-14c0.2,0,0.3-0.1,0.5-0.2v14C184.6,244,185,243.4,185,242.8"/>
		<path id="XMLID_34_" class="st1" d="M239.8,94.8c-1.4,0-1.9,1.5-1.9,2.9c0,1.5,0.5,3.1,1.9,3.1c1.5,0,1.9-1.6,1.9-3
			C241.7,96.2,241.2,94.8,239.8,94.8"/>
		<path id="XMLID_30_" class="st1" d="M253.9,80.8h-40.2v30.3h40.2V80.8z M228.2,103.3c-3,0-5.5-1.7-5.3-5.4h3
			c0,1.7,0.7,2.6,2.3,2.6c1.1,0,2.1-0.5,2.1-1.8c0-1.6-1-2-2.3-2c-0.3,0-0.6,0-0.8,0v-2.4c0.3,0,0.6,0,0.8,0c0.9,0,2.1-0.3,2.1-1.5
			c0-0.9-0.8-1.4-1.9-1.4c-1.3,0-2,0.7-2,2h-3c0.1-3.2,2.2-4.9,4.9-4.9c2.2,0,4.8,1.1,4.8,4c0,1.3-0.6,2.6-1.8,2.8v0
			c1.5,0.4,2.2,1.6,2.2,3.3C233.5,102,230.8,103.3,228.2,103.3 M244.7,103.1h-3v-1.2h0c-0.6,1-1.5,1.5-2.7,1.5c-3,0-4.3-2.9-4.3-5.9
			c0-2.8,1.3-5.4,4.1-5.4c1.2,0,2.1,0.5,2.7,1.5h0v-5.2h3.2V103.1z"/>
		<path id="XMLID_29_" class="st0" d="M238.2,132.9c0,0.9-0.8,1.6-1.8,1.6h-5.1c-1,0-1.8-0.7-1.8-1.6v9.2c0,0.9,0.8,1.6,1.8,1.6h5.1
			c1,0,1.8-0.7,1.8-1.6V132.9z"/>
		<path id="XMLID_28_" class="st0" d="M238,132.3v-11.6c0-0.9-0.8-1.7-1.7-1.7h-4.9c-0.9,0-1.7,0.8-1.7,1.7v11.6
			c0,0.7,0.4,1.3,1,1.5v-14c0.2,0.1,0.3,0.1,0.5,0.1v14c0.1,0,0.1,0,0.2,0h0.3v-14h0.5v14h0.5v-14h0.5v14h0.5v-14h0.5v14h0.5v-14
			h0.5v14h0.5v-14h0.5v14h0.2c0.1,0,0.2,0,0.3,0v-14c0.2,0,0.3-0.1,0.5-0.2v14C237.6,133.5,238,132.9,238,132.3"/>
		<path id="XMLID_27_" class="st0" d="M238.2,160.6c0,0.9-0.8,1.6-1.8,1.6h-5.1c-1,0-1.8-0.7-1.8-1.6v9.2c0,0.9,0.8,1.6,1.8,1.6h5.1
			c1,0,1.8-0.7,1.8-1.6V160.6z"/>
		<path id="XMLID_26_" class="st0" d="M238,159.9v-11.6c0-0.9-0.8-1.7-1.7-1.7h-4.9c-0.9,0-1.7,0.8-1.7,1.7v11.6
			c0,0.7,0.4,1.3,1,1.5v-14c0.2,0.1,0.3,0.1,0.5,0.1v14c0.1,0,0.1,0,0.2,0h0.3v-14h0.5v14h0.5v-14h0.5v14h0.5v-14h0.5v14h0.5v-14
			h0.5v14h0.5v-14h0.5v14h0.2c0.1,0,0.2,0,0.3,0v-14c0.2,0,0.3-0.1,0.5-0.2v14C237.6,161.1,238,160.5,238,159.9"/>
		<path id="XMLID_25_" class="st0" d="M238.2,188.2c0,0.9-0.8,1.6-1.8,1.6h-5.1c-1,0-1.8-0.7-1.8-1.6v9.2c0,0.9,0.8,1.6,1.8,1.6h5.1
			c1,0,1.8-0.7,1.8-1.6V188.2z"/>
		<path id="XMLID_24_" class="st0" d="M238,187.5v-11.6c0-0.9-0.8-1.7-1.7-1.7h-4.9c-0.9,0-1.7,0.8-1.7,1.7v11.6
			c0,0.7,0.4,1.3,1,1.5v-14c0.2,0.1,0.3,0.1,0.5,0.1v14c0.1,0,0.1,0,0.2,0h0.3v-14h0.5v14h0.5v-14h0.5v14h0.5v-14h0.5v14h0.5v-14
			h0.5v14h0.5v-14h0.5v14h0.2c0.1,0,0.2,0,0.3,0v-14c0.2,0,0.3-0.1,0.5-0.2v14C237.6,188.7,238,188.2,238,187.5"/>
		<path id="XMLID_23_" class="st0" d="M238.2,215.8c0,0.9-0.8,1.6-1.8,1.6h-5.1c-1,0-1.8-0.7-1.8-1.6v9.2c0,0.9,0.8,1.6,1.8,1.6h5.1
			c1,0,1.8-0.7,1.8-1.6V215.8z"/>
		<path id="XMLID_22_" class="st0" d="M238,215.1v-11.6c0-0.9-0.8-1.7-1.7-1.7h-4.9c-0.9,0-1.7,0.8-1.7,1.7v11.6
			c0,0.7,0.4,1.3,1,1.5v-14c0.2,0.1,0.3,0.1,0.5,0.1v14c0.1,0,0.1,0,0.2,0h0.3v-14h0.5v14h0.5v-14h0.5v14h0.5v-14h0.5v14h0.5v-14
			h0.5v14h0.5v-14h0.5v14h0.2c0.1,0,0.2,0,0.3,0v-14c0.2,0,0.3-0.1,0.5-0.2v14C237.6,216.3,238,215.8,238,215.1"/>
		<path id="XMLID_21_" class="st0" d="M229.5,252.7c0,0.9,0.8,1.6,1.8,1.6h5.1c1,0,1.8-0.7,1.8-1.6v-9.2c0,0.9-0.8,1.6-1.8,1.6h-5.1
			c-1,0-1.8-0.7-1.8-1.6V252.7z"/>
		<path id="XMLID_20_" class="st0" d="M238,242.8v-11.6c0-0.9-0.8-1.7-1.7-1.7h-4.9c-0.9,0-1.7,0.8-1.7,1.7v11.6
			c0,0.7,0.4,1.3,1,1.5v-14c0.2,0.1,0.3,0.1,0.5,0.1v14c0.1,0,0.1,0,0.2,0h0.3v-14h0.5v14h0.5v-14h0.5v14h0.5v-14h0.5v14h0.5v-14
			h0.5v14h0.5v-14h0.5v14h0.2c0.1,0,0.2,0,0.3,0v-14c0.2,0,0.3-0.1,0.5-0.2v14C237.6,244,238,243.4,238,242.8"/>
		<path id="XMLID_17_" class="st1" d="M267.3,110.8h40.2V80.5h-40.2V110.8z M297.6,97.6l-4.7,6.8c0,0-1.2,3.2-5.4,3.7c0,0,0,0,0,0
			c-0.5,0.1-0.9,0.1-1.4,0.1h-0.9c-3.5,0-6.3-2.3-6.3-5.2v-0.8v-4.6v-3v-6.5c0-0.7,0.6-1.2,1.4-1.2c0.8,0,1.4,0.5,1.4,1.2v6.5h0.5
			v-8.7c0-0.7,0.6-1.2,1.4-1.2c0.8,0,1.4,0.5,1.4,1.2v8.7h0.7V84.3c0-0.7,0.6-1.2,1.4-1.2c0.8,0,1.4,0.5,1.4,1.2v10.3h0.7v-7.9
			c0-0.7,0.6-1.2,1.4-1.2c0.8,0,1.4,0.5,1.4,1.2v7.9v1.6v2.8l2.6-2.7c0,0,1-1,2.1-0.4C298.2,96.5,297.6,97.6,297.6,97.6"/>
		<path id="XMLID_16_" class="st0" d="M283,142.2c0,0.9,0.8,1.6,1.8,1.6h5.1c1,0,1.8-0.7,1.8-1.6v-9.2c0,0.9-0.8,1.6-1.8,1.6h-5.1
			c-1,0-1.8-0.7-1.8-1.6V142.2z"/>
		<path id="XMLID_15_" class="st0" d="M291.5,132.3v-11.6c0-0.9-0.8-1.7-1.7-1.7h-4.9c-0.9,0-1.7,0.8-1.7,1.7v11.6
			c0,0.7,0.4,1.3,1,1.5v-14c0.2,0.1,0.3,0.1,0.5,0.1v14c0.1,0,0.1,0,0.2,0h0.3v-14h0.5v14h0.5v-14h0.5v14h0.5v-14h0.5v14h0.5v-14
			h0.5v14h0.5v-14h0.5v14h0.2c0.1,0,0.2,0,0.3,0v-14c0.2,0,0.3-0.1,0.5-0.2v14C291.1,133.5,291.5,132.9,291.5,132.3"/>
		<path id="XMLID_14_" class="st0" d="M283,169.8c0,0.9,0.8,1.6,1.8,1.6h5.1c1,0,1.8-0.7,1.8-1.6v-9.2c0,0.9-0.8,1.6-1.8,1.6h-5.1
			c-1,0-1.8-0.7-1.8-1.6V169.8z"/>
		<path id="XMLID_13_" class="st0" d="M291.5,159.9v-11.6c0-0.9-0.8-1.7-1.7-1.7h-4.9c-0.9,0-1.7,0.8-1.7,1.7v11.6
			c0,0.7,0.4,1.3,1,1.5v-14c0.2,0.1,0.3,0.1,0.5,0.1v14c0.1,0,0.1,0,0.2,0h0.3v-14h0.5v14h0.5v-14h0.5v14h0.5v-14h0.5v14h0.5v-14
			h0.5v14h0.5v-14h0.5v14h0.2c0.1,0,0.2,0,0.3,0v-14c0.2,0,0.3-0.1,0.5-0.2v14C291.1,161.1,291.5,160.5,291.5,159.9"/>
		<path id="XMLID_12_" class="st0" d="M283,197.4c0,0.9,0.8,1.6,1.8,1.6h5.1c1,0,1.8-0.7,1.8-1.6v-9.2c0,0.9-0.8,1.6-1.8,1.6h-5.1
			c-1,0-1.8-0.7-1.8-1.6V197.4z"/>
		<path id="XMLID_11_" class="st0" d="M291.5,187.5v-11.6c0-0.9-0.8-1.7-1.7-1.7h-4.9c-0.9,0-1.7,0.8-1.7,1.7v11.6
			c0,0.7,0.4,1.3,1,1.5v-14c0.2,0.1,0.3,0.1,0.5,0.1v14c0.1,0,0.1,0,0.2,0h0.3v-14h0.5v14h0.5v-14h0.5v14h0.5v-14h0.5v14h0.5v-14
			h0.5v14h0.5v-14h0.5v14h0.2c0.1,0,0.2,0,0.3,0v-14c0.2,0,0.3-0.1,0.5-0.2v14C291.1,188.7,291.5,188.2,291.5,187.5"/>
		<path id="XMLID_10_" class="st0" d="M283,225.1c0,0.9,0.8,1.6,1.8,1.6h5.1c1,0,1.8-0.7,1.8-1.6v-9.2c0,0.9-0.8,1.6-1.8,1.6h-5.1
			c-1,0-1.8-0.7-1.8-1.6V225.1z"/>
		<path id="XMLID_9_" class="st0" d="M291.5,215.1v-11.6c0-0.9-0.8-1.7-1.7-1.7h-4.9c-0.9,0-1.7,0.8-1.7,1.7v11.6
			c0,0.7,0.4,1.3,1,1.5v-14c0.2,0.1,0.3,0.1,0.5,0.1v14c0.1,0,0.1,0,0.2,0h0.3v-14h0.5v14h0.5v-14h0.5v14h0.5v-14h0.5v14h0.5v-14
			h0.5v14h0.5v-14h0.5v14h0.2c0.1,0,0.2,0,0.3,0v-14c0.2,0,0.3-0.1,0.5-0.2v14C291.1,216.3,291.5,215.8,291.5,215.1"/>
		<path id="XMLID_8_" class="st0" d="M283,252.7c0,0.9,0.8,1.6,1.8,1.6h5.1c1,0,1.8-0.7,1.8-1.6v-9.2c0,0.9-0.8,1.6-1.8,1.6h-5.1
			c-1,0-1.8-0.7-1.8-1.6V252.7z"/>
		<path id="XMLID_7_" class="st0" d="M291.5,242.8v-11.6c0-0.9-0.8-1.7-1.7-1.7h-4.9c-0.9,0-1.7,0.8-1.7,1.7v11.6
			c0,0.7,0.4,1.3,1,1.5v-14c0.2,0.1,0.3,0.1,0.5,0.1v14c0.1,0,0.1,0,0.2,0h0.3v-14h0.5v14h0.5v-14h0.5v14h0.5v-14h0.5v14h0.5v-14
			h0.5v14h0.5v-14h0.5v14h0.2c0.1,0,0.2,0,0.3,0v-14c0.2,0,0.3-0.1,0.5-0.2v14C291.1,244,291.5,243.4,291.5,242.8"/>
		<path id="XMLID_6_" class="st0" d="M283,280.3c0,0.9,0.8,1.6,1.8,1.6h5.1c1,0,1.8-0.7,1.8-1.6v-9.2c0,0.9-0.8,1.6-1.8,1.6h-5.1
			c-1,0-1.8-0.7-1.8-1.6V280.3z"/>
		<path id="XMLID_5_" class="st0" d="M291.5,270.4v-11.6c0-0.9-0.8-1.7-1.7-1.7h-4.9c-0.9,0-1.7,0.8-1.7,1.7v11.6
			c0,0.7,0.4,1.3,1,1.5v-14c0.2,0.1,0.3,0.1,0.5,0.1v14c0.1,0,0.1,0,0.2,0h0.3v-14h0.5v14h0.5v-14h0.5v14h0.5v-14h0.5v14h0.5v-14
			h0.5v14h0.5v-14h0.5v14h0.2c0.1,0,0.2,0,0.3,0v-14c0.2,0,0.3-0.1,0.5-0.2v14C291.1,271.6,291.5,271,291.5,270.4"/>
		<path id="XMLID_4_" class="st0" d="M283,307.9c0,0.9,0.8,1.6,1.8,1.6h5.1c1,0,1.8-0.7,1.8-1.6v-9.2c0,0.9-0.8,1.6-1.8,1.6h-5.1
			c-1,0-1.8-0.7-1.8-1.6V307.9z"/>
		<path id="XMLID_3_" class="st0" d="M291.5,298v-11.6c0-0.9-0.8-1.7-1.7-1.7h-4.9c-0.9,0-1.7,0.8-1.7,1.7V298c0,0.7,0.4,1.3,1,1.5
			v-14c0.2,0.1,0.3,0.1,0.5,0.1v14c0.1,0,0.1,0,0.2,0h0.3v-14h0.5v14h0.5v-14h0.5v14h0.5v-14h0.5v14h0.5v-14h0.5v14h0.5v-14h0.5v14
			h0.2c0.1,0,0.2,0,0.3,0v-14c0.2,0,0.3-0.1,0.5-0.2v14C291.1,299.2,291.5,298.7,291.5,298"/>
		<g id="XMLID_236_">
			<g id="XMLID_2_">
				<path id="XMLID_287_" class="st0" d="M342.5,133.8h-5.1c-1,0-1.8-0.7-1.8-1.6v9.2c0,0.9,0.8,1.6,1.8,1.6h5.1
					c1,0,1.8-0.7,1.8-1.6v-9.2C344.3,133.1,343.5,133.8,342.5,133.8"/>
				<path id="XMLID_286_" class="st0" d="M344.1,131.6V120c0-0.9-0.8-1.7-1.7-1.7h-4.9c-0.9,0-1.7,0.8-1.7,1.7v11.6
					c0,0.7,0.4,1.3,1,1.5v-14c0.2,0.1,0.3,0.1,0.5,0.1v14c0.1,0,0.1,0,0.2,0h0.3v-14h0.5v14h0.5v-14h0.5v14h0.5v-14h0.5v14h0.5v-14
					h0.5v14h0.5v-14h0.5v14h0.2c0.1,0,0.2,0,0.3,0v-14c0.2,0,0.3-0.1,0.5-0.2v14C343.7,132.8,344.1,132.2,344.1,131.6"/>
				<path id="XMLID_285_" class="st0" d="M342.5,161.4h-5.1c-1,0-1.8-0.7-1.8-1.6v9.2c0,0.9,0.8,1.6,1.8,1.6h5.1
					c1,0,1.8-0.7,1.8-1.6v-9.2C344.3,160.7,343.5,161.4,342.5,161.4"/>
				<path id="XMLID_284_" class="st0" d="M344.1,159.2v-11.6c0-0.9-0.8-1.7-1.7-1.7h-4.9c-0.9,0-1.7,0.8-1.7,1.7v11.6
					c0,0.7,0.4,1.3,1,1.5v-14c0.2,0.1,0.3,0.1,0.5,0.1v14c0.1,0,0.1,0,0.2,0h0.3v-14h0.5v14h0.5v-14h0.5v14h0.5v-14h0.5v14h0.5v-14
					h0.5v14h0.5v-14h0.5v14h0.2c0.1,0,0.2,0,0.3,0v-14c0.2,0,0.3-0.1,0.5-0.2v14C343.7,160.4,344.1,159.8,344.1,159.2"/>
				<path id="XMLID_283_" class="st0" d="M342.5,189.1h-5.1c-1,0-1.8-0.7-1.8-1.6v9.2c0,0.9,0.8,1.6,1.8,1.6h5.1
					c1,0,1.8-0.7,1.8-1.6v-9.2C344.3,188.4,343.5,189.1,342.5,189.1"/>
				<path id="XMLID_282_" class="st0" d="M344.1,186.8v-11.6c0-0.9-0.8-1.7-1.7-1.7h-4.9c-0.9,0-1.7,0.8-1.7,1.7v11.6
					c0,0.7,0.4,1.3,1,1.5v-14c0.2,0.1,0.3,0.1,0.5,0.1v14c0.1,0,0.1,0,0.2,0h0.3v-14h0.5v14h0.5v-14h0.5v14h0.5v-14h0.5v14h0.5v-14
					h0.5v14h0.5v-14h0.5v14h0.2c0.1,0,0.2,0,0.3,0v-14c0.2,0,0.3-0.1,0.5-0.2v14C343.7,188,344.1,187.5,344.1,186.8"/>
				<path id="XMLID_281_" class="st0" d="M342.5,216.7h-5.1c-1,0-1.8-0.7-1.8-1.6v9.2c0,0.9,0.8,1.6,1.8,1.6h5.1
					c1,0,1.8-0.7,1.8-1.6v-9.2C344.3,216,343.5,216.7,342.5,216.7"/>
				<path id="XMLID_280_" class="st0" d="M344.1,214.5v-11.6c0-0.9-0.8-1.7-1.7-1.7h-4.9c-0.9,0-1.7,0.8-1.7,1.7v11.6
					c0,0.7,0.4,1.3,1,1.5v-14c0.2,0.1,0.3,0.1,0.5,0.1v14c0.1,0,0.1,0,0.2,0h0.3v-14h0.5v14h0.5v-14h0.5v14h0.5v-14h0.5v14h0.5v-14
					h0.5v14h0.5v-14h0.5v14h0.2c0.1,0,0.2,0,0.3,0v-14c0.2,0,0.3-0.1,0.5-0.2v14C343.7,215.7,344.1,215.1,344.1,214.5"/>
				<path id="XMLID_279_" class="st0" d="M342.5,244.3h-5.1c-1,0-1.8-0.7-1.8-1.6v9.2c0,0.9,0.8,1.6,1.8,1.6h5.1
					c1,0,1.8-0.7,1.8-1.6v-9.2C344.3,243.6,343.5,244.3,342.5,244.3"/>
				<path id="XMLID_278_" class="st0" d="M344.1,242.1v-11.6c0-0.9-0.8-1.7-1.7-1.7h-4.9c-0.9,0-1.7,0.8-1.7,1.7v11.6
					c0,0.7,0.4,1.3,1,1.5v-14c0.2,0.1,0.3,0.1,0.5,0.1v14c0.1,0,0.1,0,0.2,0h0.3v-14h0.5v14h0.5v-14h0.5v14h0.5v-14h0.5v14h0.5v-14
					h0.5v14h0.5v-14h0.5v14h0.2c0.1,0,0.2,0,0.3,0v-14c0.2,0,0.3-0.1,0.5-0.2v14C343.7,243.3,344.1,242.7,344.1,242.1"/>
				<path id="XMLID_277_" class="st0" d="M342.5,271.9h-5.1c-1,0-1.8-0.7-1.8-1.6v9.2c0,0.9,0.8,1.6,1.8,1.6h5.1
					c1,0,1.8-0.7,1.8-1.6v-9.2C344.3,271.2,343.5,271.9,342.5,271.9"/>
				<path id="XMLID_276_" class="st0" d="M344.1,269.7v-11.6c0-0.9-0.8-1.7-1.7-1.7h-4.9c-0.9,0-1.7,0.8-1.7,1.7v11.6
					c0,0.7,0.4,1.3,1,1.5v-14c0.2,0.1,0.3,0.1,0.5,0.1v14c0.1,0,0.1,0,0.2,0h0.3v-14h0.5v14h0.5v-14h0.5v14h0.5v-14h0.5v14h0.5v-14
					h0.5v14h0.5v-14h0.5v14h0.2c0.1,0,0.2,0,0.3,0v-14c0.2,0,0.3-0.1,0.5-0.2v14C343.7,270.9,344.1,270.3,344.1,269.7"/>
				<path id="XMLID_275_" class="st0" d="M342.5,299.6h-5.1c-1,0-1.8-0.7-1.8-1.6v9.2c0,0.9,0.8,1.6,1.8,1.6h5.1
					c1,0,1.8-0.7,1.8-1.6V298C344.3,298.9,343.5,299.6,342.5,299.6"/>
				<path id="XMLID_274_" class="st0" d="M344.1,297.3v-11.6c0-0.9-0.8-1.7-1.7-1.7h-4.9c-0.9,0-1.7,0.8-1.7,1.7v11.6
					c0,0.7,0.4,1.3,1,1.5v-14c0.2,0.1,0.3,0.1,0.5,0.1v14c0.1,0,0.1,0,0.2,0h0.3v-14h0.5v14h0.5v-14h0.5v14h0.5v-14h0.5v14h0.5v-14
					h0.5v14h0.5v-14h0.5v14h0.2c0.1,0,0.2,0,0.3,0v-14c0.2,0,0.3-0.1,0.5-0.2v14C343.7,298.5,344.1,298,344.1,297.3"/>
				<path id="XMLID_246_" class="st1" d="M319.9,80.5v30.3H360V80.5H319.9z M333.3,102.9h-2.8v-6.6h-5.2v6.6h-2.8V88.3h2.8v5.6h5.2
					v-5.6h2.8V102.9z M339,94.2h-1.6v5.7c0,0.4,0.1,0.7,0.2,0.8c0.1,0.1,0.4,0.2,0.9,0.2c0.1,0,0.2,0,0.2,0c0.1,0,0.2,0,0.3,0v2.1
					l-1.2,0c-1.2,0-2-0.2-2.5-0.7c-0.3-0.3-0.4-0.8-0.4-1.5v-6.7h-1.4v-2h1.4v-3h2.5v3h1.6V94.2z M353.5,102.9h-2.6V96
					c0-0.4-0.1-0.8-0.2-1c-0.2-0.5-0.6-0.8-1.3-0.8c-0.7,0-1.2,0.3-1.5,1c-0.1,0.3-0.2,0.8-0.2,1.2v6.5h-2.6v-6.5
					c0-0.6-0.1-1.1-0.2-1.4c-0.2-0.5-0.6-0.8-1.3-0.8c-0.7,0-1.2,0.3-1.5,0.8c-0.1,0.3-0.2,0.7-0.2,1.3v6.5h-2.6V92.1h2.5v1.6
					c0.3-0.6,0.6-1,0.9-1.2c0.5-0.4,1.1-0.6,1.9-0.6c0.8,0,1.4,0.2,1.8,0.5c0.4,0.3,0.7,0.8,0.8,1.3c0.3-0.6,0.8-1.1,1.3-1.4
					c0.5-0.3,1.1-0.4,1.8-0.4c0.4,0,0.9,0.1,1.3,0.3c0.4,0.2,0.8,0.5,1.1,1c0.3,0.4,0.5,0.8,0.6,1.4c0.1,0.4,0.1,0.9,0.1,1.6
					L353.5,102.9z M357.2,102.9h-2.6V88.3h2.6V102.9z"/>
			</g>
			<g id="XMLID_235_">
				<path id="XMLID_317_" class="st0" d="M395.8,133.8h-5.1c-1,0-1.8-0.7-1.8-1.6v9.2c0,0.9,0.8,1.6,1.8,1.6h5.1
					c1,0,1.8-0.7,1.8-1.6v-9.2C397.6,133.1,396.8,133.8,395.8,133.8"/>
				<path id="XMLID_316_" class="st0" d="M397.4,131.6V120c0-0.9-0.8-1.7-1.7-1.7h-4.9c-0.9,0-1.7,0.8-1.7,1.7v11.6
					c0,0.7,0.4,1.3,1,1.5v-14c0.2,0.1,0.3,0.1,0.5,0.1v14c0.1,0,0.1,0,0.2,0h0.3v-14h0.5v14h0.5v-14h0.5v14h0.5v-14h0.5v14h0.5v-14
					h0.5v14h0.5v-14h0.5v14h0.2c0.1,0,0.2,0,0.3,0v-14c0.2,0,0.3-0.1,0.5-0.2v14C397,132.8,397.4,132.2,397.4,131.6"/>
				<path id="XMLID_315_" class="st0" d="M395.8,161.4h-5.1c-1,0-1.8-0.7-1.8-1.6v9.2c0,0.9,0.8,1.6,1.8,1.6h5.1
					c1,0,1.8-0.7,1.8-1.6v-9.2C397.6,160.7,396.8,161.4,395.8,161.4"/>
				<path id="XMLID_314_" class="st0" d="M397.4,159.2v-11.6c0-0.9-0.8-1.7-1.7-1.7h-4.9c-0.9,0-1.7,0.8-1.7,1.7v11.6
					c0,0.7,0.4,1.3,1,1.5v-14c0.2,0.1,0.3,0.1,0.5,0.1v14c0.1,0,0.1,0,0.2,0h0.3v-14h0.5v14h0.5v-14h0.5v14h0.5v-14h0.5v14h0.5v-14
					h0.5v14h0.5v-14h0.5v14h0.2c0.1,0,0.2,0,0.3,0v-14c0.2,0,0.3-0.1,0.5-0.2v14C397,160.4,397.4,159.8,397.4,159.2"/>
				<path id="XMLID_313_" class="st0" d="M395.8,189.1h-5.1c-1,0-1.8-0.7-1.8-1.6v9.2c0,0.9,0.8,1.6,1.8,1.6h5.1
					c1,0,1.8-0.7,1.8-1.6v-9.2C397.6,188.4,396.8,189.1,395.8,189.1"/>
				<path id="XMLID_312_" class="st0" d="M397.4,186.8v-11.6c0-0.9-0.8-1.7-1.7-1.7h-4.9c-0.9,0-1.7,0.8-1.7,1.7v11.6
					c0,0.7,0.4,1.3,1,1.5v-14c0.2,0.1,0.3,0.1,0.5,0.1v14c0.1,0,0.1,0,0.2,0h0.3v-14h0.5v14h0.5v-14h0.5v14h0.5v-14h0.5v14h0.5v-14
					h0.5v14h0.5v-14h0.5v14h0.2c0.1,0,0.2,0,0.3,0v-14c0.2,0,0.3-0.1,0.5-0.2v14C397,188,397.4,187.5,397.4,186.8"/>
				<path id="XMLID_311_" class="st0" d="M395.8,216.7h-5.1c-1,0-1.8-0.7-1.8-1.6v9.2c0,0.9,0.8,1.6,1.8,1.6h5.1
					c1,0,1.8-0.7,1.8-1.6v-9.2C397.6,216,396.8,216.7,395.8,216.7"/>
				<path id="XMLID_310_" class="st0" d="M397.4,214.5v-11.6c0-0.9-0.8-1.7-1.7-1.7h-4.9c-0.9,0-1.7,0.8-1.7,1.7v11.6
					c0,0.7,0.4,1.3,1,1.5v-14c0.2,0.1,0.3,0.1,0.5,0.1v14c0.1,0,0.1,0,0.2,0h0.3v-14h0.5v14h0.5v-14h0.5v14h0.5v-14h0.5v14h0.5v-14
					h0.5v14h0.5v-14h0.5v14h0.2c0.1,0,0.2,0,0.3,0v-14c0.2,0,0.3-0.1,0.5-0.2v14C397,215.7,397.4,215.1,397.4,214.5"/>
				<path id="XMLID_309_" class="st0" d="M395.8,244.3h-5.1c-1,0-1.8-0.7-1.8-1.6v9.2c0,0.9,0.8,1.6,1.8,1.6h5.1
					c1,0,1.8-0.7,1.8-1.6v-9.2C397.6,243.6,396.8,244.3,395.8,244.3"/>
				<path id="XMLID_308_" class="st0" d="M397.4,242.1v-11.6c0-0.9-0.8-1.7-1.7-1.7h-4.9c-0.9,0-1.7,0.8-1.7,1.7v11.6
					c0,0.7,0.4,1.3,1,1.5v-14c0.2,0.1,0.3,0.1,0.5,0.1v14c0.1,0,0.1,0,0.2,0h0.3v-14h0.5v14h0.5v-14h0.5v14h0.5v-14h0.5v14h0.5v-14
					h0.5v14h0.5v-14h0.5v14h0.2c0.1,0,0.2,0,0.3,0v-14c0.2,0,0.3-0.1,0.5-0.2v14C397,243.3,397.4,242.7,397.4,242.1"/>
				<path id="XMLID_307_" class="st0" d="M395.8,271.9h-5.1c-1,0-1.8-0.7-1.8-1.6v9.2c0,0.9,0.8,1.6,1.8,1.6h5.1
					c1,0,1.8-0.7,1.8-1.6v-9.2C397.6,271.2,396.8,271.9,395.8,271.9"/>
				<path id="XMLID_306_" class="st0" d="M397.4,269.7v-11.6c0-0.9-0.8-1.7-1.7-1.7h-4.9c-0.9,0-1.7,0.8-1.7,1.7v11.6
					c0,0.7,0.4,1.3,1,1.5v-14c0.2,0.1,0.3,0.1,0.5,0.1v14c0.1,0,0.1,0,0.2,0h0.3v-14h0.5v14h0.5v-14h0.5v14h0.5v-14h0.5v14h0.5v-14
					h0.5v14h0.5v-14h0.5v14h0.2c0.1,0,0.2,0,0.3,0v-14c0.2,0,0.3-0.1,0.5-0.2v14C397,270.9,397.4,270.3,397.4,269.7"/>
				<path id="XMLID_305_" class="st0" d="M395.8,299.6h-5.1c-1,0-1.8-0.7-1.8-1.6v9.2c0,0.9,0.8,1.6,1.8,1.6h5.1
					c1,0,1.8-0.7,1.8-1.6V298C397.6,298.9,396.8,299.6,395.8,299.6"/>
				<path id="XMLID_304_" class="st0" d="M397.4,297.3v-11.6c0-0.9-0.8-1.7-1.7-1.7h-4.9c-0.9,0-1.7,0.8-1.7,1.7v11.6
					c0,0.7,0.4,1.3,1,1.5v-14c0.2,0.1,0.3,0.1,0.5,0.1v14c0.1,0,0.1,0,0.2,0h0.3v-14h0.5v14h0.5v-14h0.5v14h0.5v-14h0.5v14h0.5v-14
					h0.5v14h0.5v-14h0.5v14h0.2c0.1,0,0.2,0,0.3,0v-14c0.2,0,0.3-0.1,0.5-0.2v14C397,298.5,397.4,298,397.4,297.3"/>
				<path id="XMLID_291_" class="st1" d="M373.2,80.5v30.3h40.2V80.5H373.2z M382.1,99.5c0.6,0.8,1.4,1.2,2.3,1.2
					c1,0,1.7-0.4,2.2-1.1c0.3-0.4,0.5-0.9,0.7-1.7h2.8c-0.2,1.6-0.8,2.9-1.8,3.9c-1,1-2.2,1.5-3.8,1.5c-1.9,0-3.4-0.7-4.5-2
					c-1.1-1.4-1.6-3.2-1.6-5.6c0-2.6,0.6-4.5,1.8-5.9c1.1-1.2,2.4-1.8,4.1-1.8c2.2,0,3.8,0.8,4.8,2.4c0.6,0.9,0.9,1.8,0.9,2.7h-2.8
					c-0.2-0.7-0.4-1.2-0.7-1.6c-0.5-0.6-1.2-1-2.2-1c-1,0-1.8,0.4-2.3,1.3c-0.6,0.9-0.9,2.2-0.9,3.8
					C381.2,97.4,381.5,98.7,382.1,99.5z M398.1,102.3c-0.7,0.7-1.8,1-3.4,1c-1.5,0-2.7-0.4-3.4-1.1s-1.1-1.6-1.1-2.8h2.6
					c0.1,0.5,0.2,0.9,0.4,1.1c0.3,0.4,0.9,0.6,1.8,0.6c0.5,0,0.9-0.1,1.2-0.2c0.3-0.2,0.4-0.4,0.4-0.7c0-0.3-0.1-0.6-0.4-0.7
					s-1.1-0.5-2.7-0.9c-1.1-0.3-1.9-0.7-2.4-1.1c-0.5-0.5-0.7-1.1-0.7-2c0-1,0.4-1.9,1.1-2.6c0.7-0.7,1.7-1.1,3-1.1
					c1.2,0,2.2,0.3,3,0.8c0.8,0.5,1.2,1.5,1.3,2.8h-2.6c0-0.4-0.1-0.7-0.3-0.9c-0.3-0.4-0.8-0.6-1.4-0.6c-0.6,0-1,0.1-1.2,0.3
					c-0.2,0.2-0.4,0.4-0.4,0.7c0,0.3,0.1,0.6,0.4,0.7c0.3,0.2,1.1,0.4,2.7,0.8c1,0.3,1.8,0.7,2.3,1.2c0.5,0.5,0.8,1.2,0.8,2
					C399.2,100.7,398.8,101.6,398.1,102.3z M407.1,102.3c-0.7,0.7-1.8,1-3.4,1c-1.5,0-2.7-0.4-3.4-1.1c-0.7-0.7-1.1-1.6-1.1-2.8h2.6
					c0.1,0.5,0.2,0.9,0.4,1.1c0.3,0.4,0.9,0.6,1.8,0.6c0.5,0,0.9-0.1,1.2-0.2c0.3-0.2,0.4-0.4,0.4-0.7c0-0.3-0.1-0.6-0.4-0.7
					c-0.2-0.2-1.1-0.5-2.7-0.9c-1.1-0.3-1.9-0.7-2.4-1.1c-0.5-0.5-0.7-1.1-0.7-2c0-1,0.4-1.9,1.1-2.6c0.7-0.7,1.7-1.1,3-1.1
					c1.2,0,2.2,0.3,3,0.8s1.2,1.5,1.3,2.8h-2.6c0-0.4-0.1-0.7-0.3-0.9c-0.3-0.4-0.8-0.6-1.4-0.6c-0.6,0-1,0.1-1.2,0.3
					c-0.2,0.2-0.4,0.4-0.4,0.7c0,0.3,0.1,0.6,0.4,0.7c0.3,0.2,1.1,0.4,2.7,0.8c1,0.3,1.8,0.7,2.3,1.2c0.5,0.5,0.8,1.2,0.8,2
					C408.2,100.7,407.8,101.6,407.1,102.3z"/>
			</g>
		</g>
	</g>
</g>
</svg>
