<?xml version="1.0" encoding="utf-8"?>
<!-- Generator: Adobe Illustrator 19.0.0, SVG Export Plug-In . SVG Version: 6.00 Build 0)  -->
<svg version="1.1" id="Capa_1" xmlns="http://www.w3.org/2000/svg" xmlns:xlink="http://www.w3.org/1999/xlink" x="0px" y="0px"
	 viewBox="-166.1 375.6 134.6 90.1" style="enable-background:new -166.1 375.6 134.6 90.1;" xml:space="preserve">
<style type="text/css">
	.st0{fill:#3F403E;}
	.st1{fill:#30C989;}
	.st2{fill:#FFFFFF;}
</style>
<g id="XMLID_2_">
	<polygon id="XMLID_44_" class="st0" points="-134.3,375.6 -63.5,375.6 -55.2,386.6 -142.6,386.6 	"/>
	<path id="XMLID_43_" class="st0" d="M-155.1,439.4h-4.3c-3.7,0-6.7-3-6.7-6.8v-18.4c0-3.7,3-6.8,6.7-6.8h4.3V439.4z"/>
	<path id="XMLID_42_" class="st0" d="M-44.2,458.4c0,4-3.2,7.3-7.3,7.3h-94.8c-4,0-7.3-3.3-7.3-7.3v-63c0-4,3.3-7.3,7.3-7.3h94.8
		c4,0,7.3,3.2,7.3,7.3V458.4L-44.2,458.4z"/>
	<path id="XMLID_41_" class="st0" d="M-31.5,432.7c0,3.7-3,6.8-6.8,6.8h-4.3v-32.1h4.3c3.7,0,6.8,3,6.8,6.8
		C-31.6,414.2-31.6,432.7-31.5,432.7z"/>
	<rect id="XMLID_40_" x="-131.8" y="442.9" class="st1" width="8.1" height="11.1"/>
	<rect id="XMLID_39_" x="-112.5" y="442.9" class="st2" width="8.1" height="11.1"/>
	<rect id="XMLID_38_" x="-122.1" y="442.9" class="st1" width="8.1" height="11.1"/>
	<rect id="XMLID_37_" x="-141.3" y="442.9" class="st1" width="8.1" height="11.1"/>
	<rect id="XMLID_36_" x="-141.3" y="455.2" class="st1" width="8.1" height="5.9"/>
	<rect id="XMLID_35_" x="-93.3" y="442.9" class="st1" width="8.1" height="11.1"/>
	<path id="XMLID_34_" class="st1" d="M-54.9,454.1h5.7v-6c0-2.8-2.3-5.1-5.1-5.1h-0.6L-54.9,454.1L-54.9,454.1z"/>
	<rect id="XMLID_33_" x="-102.9" y="442.9" class="st1" width="8.1" height="11.1"/>
	<rect id="XMLID_32_" x="-74" y="442.9" class="st1" width="8.1" height="11.1"/>
	<rect id="XMLID_31_" x="-83.6" y="442.9" class="st1" width="8.1" height="11.1"/>
	<rect id="XMLID_30_" x="-131.8" y="455.2" class="st1" width="8.1" height="5.9"/>
	<path id="XMLID_29_" class="st1" d="M-142.8,454.1V443h-0.5c-2.8,0-5.1,2.3-5.1,5.1v6H-142.8z"/>
	<rect id="XMLID_28_" x="-74" y="455.2" class="st2" width="8.1" height="5.9"/>
	<rect id="XMLID_27_" x="-64.4" y="442.9" class="st1" width="8.1" height="11.1"/>
	<rect id="XMLID_26_" x="-64.4" y="455.2" class="st1" width="8.1" height="5.9"/>
	<path id="XMLID_25_" class="st1" d="M-142.8,455.2h-5.6v0.8c0,2.8,2.3,5.1,5.1,5.1h0.5V455.2z"/>
	<path id="XMLID_24_" class="st1" d="M-54.9,455.2v5.9h0.6c2.8,0,5.1-2.3,5.1-5.1v-0.8H-54.9L-54.9,455.2z"/>
	<rect id="XMLID_23_" x="-122.1" y="455.2" class="st1" width="8.1" height="5.9"/>
	<rect id="XMLID_22_" x="-112.5" y="455.2" class="st1" width="8.1" height="5.9"/>
	<rect id="XMLID_21_" x="-102.9" y="455.2" class="st1" width="8.1" height="5.9"/>
	<rect id="XMLID_20_" x="-83.6" y="455.2" class="st1" width="8.1" height="5.9"/>
	<rect id="XMLID_19_" x="-93.3" y="455.2" class="st1" width="8.1" height="5.9"/>
	<path id="XMLID_11_" class="st1" d="M-122.3,394.7c-11.9,0-21.5,9.6-21.5,21.5s9.6,21.5,21.5,21.5s21.5-9.6,21.5-21.5
		S-110.4,394.7-122.3,394.7 M-126.8,399.1l-12.6,12.6C-137.8,405.6-132.8,400.7-126.8,399.1 M-140.1,416.2c0-0.7,0.1-1.5,0.2-2.2
		l15.3-15.3c0.7-0.1,1.5-0.2,2.2-0.2c1.8,0,3.6,0.3,5.3,0.8l-6.2,6.2l-9.5,9.5l-6.5,6.5C-139.8,419.8-140.1,418-140.1,416.2
		 M-138.8,422.8l6.9-6.9l9.5-9.5l6.6-6.6c1.9,0.8,3.6,1.8,5,3.1l-7.6,7.6l-9.5,9.5l-7.8,7.8C-136.8,426.4-137.8,424.7-138.8,422.8
		 M-119.5,433.6l14.7-14.7C-106,426.5-112,432.4-119.5,433.6 M-104.6,416.2c0,0.3,0,0.5,0,0.8l-16.9,16.9c-0.3,0-0.5,0-0.8,0
		c-2.2,0-4.3-0.4-6.3-1.2l6.8-6.8l9.5-9.5l6.5-6.5C-105,411.9-104.6,414-104.6,416.2 M-113.3,415.5l-9.5,9.5l-7.1,7.1
		c-1.8-0.8-3.4-2-4.8-3.3l7.9-7.9l9.5-9.5l7.6-7.6c1.4,1.4,2.5,3,3.3,4.8L-113.3,415.5z"/>
	<path id="XMLID_3_" class="st1" d="M-75.3,394.7c-11.9,0-21.5,9.6-21.5,21.5s9.6,21.5,21.5,21.5s21.5-9.6,21.5-21.5
		S-63.5,394.7-75.3,394.7 M-79.8,399.1l-12.6,12.6C-90.8,405.6-85.9,400.7-79.8,399.1 M-93,416.2c0-0.7,0.1-1.5,0.2-2.2l15.3-15.3
		c0.7-0.1,1.5-0.2,2.2-0.2c1.8,0,3.6,0.3,5.3,0.8l-6.2,6.2l-9.5,9.5l-6.5,6.5C-92.8,419.8-93,418-93,416.2 M-91.8,422.8l6.9-6.9
		l9.5-9.5l6.6-6.6c1.9,0.8,3.6,1.8,5,3.1l-7.6,7.6l-9.5,9.5l-7.8,7.8C-89.9,426.4-90.9,424.7-91.8,422.8 M-72.5,433.6l14.7-14.7
		C-59,426.5-65,432.4-72.5,433.6 M-57.7,416.2c0,0.3,0,0.5,0,0.8l-16.9,16.9c-0.3,0-0.5,0-0.8,0c-2.2,0-4.3-0.4-6.3-1.2l6.8-6.8
		l9.5-9.5l6.5-6.5C-58,411.9-57.7,414-57.7,416.2 M-66.3,415.5l-9.5,9.5l-7.1,7.1c-1.8-0.8-3.4-2-4.8-3.3l7.9-7.9l9.5-9.5l7.6-7.6
		c1.4,1.4,2.5,3,3.3,4.8L-66.3,415.5z"/>
</g>
</svg>
